<?xml version="1.0" encoding="UTF-8"?><svg xmlns="http://www.w3.org/2000/svg" viewBox="0 0 83.7 62.82"><g id="a"/><g id="b"><g id="c"><g><path d="M0,4.26c.08-.19,.17-.38,.24-.58C.97,1.46,2.89,.04,5.22,0c1.66-.02,3.32,0,4.99,0,22.64,0,45.27,0,67.91,0,2.84,0,4.92,1.59,5.47,4.18,.66,3.1-1.64,6.11-4.82,6.27-.35,.02-.71,.01-1.06,.01-23.7,0-47.4-.03-71.1,.04C3.32,10.51,1.02,9.47,0,6.22v-1.96Z"/><path d="M0,30.42c.1-.25,.21-.49,.3-.74,.74-2.09,2.62-3.47,4.84-3.51,1.8-.03,3.6,0,5.39,0,22.53,0,45.06,0,67.58,0,2.84,0,4.92,1.59,5.47,4.18,.66,3.1-1.64,6.11-4.82,6.27-.35,.02-.71,.01-1.06,.01-23.7,0-47.4-.03-71.1,.04C3.32,36.67,1.02,35.63,0,32.38v-1.96Z"/><path d="M0,56.58c.1-.25,.21-.49,.3-.74,.74-2.09,2.62-3.47,4.84-3.51,1.8-.03,3.6,0,5.39,0,22.53,0,45.06,0,67.58,0,2.84,0,4.92,1.59,5.47,4.18,.66,3.1-1.64,6.11-4.82,6.27-.35,.02-.71,.01-1.06,.01-23.7,0-47.4-.03-71.1,.04C3.32,62.83,1.02,61.79,0,58.54v-1.96Z"/></g></g></g></svg>