<?xml version="1.0" encoding="UTF-8"?><svg xmlns="http://www.w3.org/2000/svg" viewBox="0 0 17.79 17.34"><defs><style>.d{fill:#fff;}.e{fill:#60a9b6;}</style></defs><g id="a"/><g id="b"><g id="c"><g><rect class="e" width="17.79" height="17.34"/><path class="d" d="M6.14,4.88c0-.11,0-.21,0-.31,0-.14,0-.27,0-.41,0-.18,.16-.32,.34-.32,.18,0,.33,.14,.34,.32,0,.2,0,.4,0,.59,0,.03,0,.07,0,.11h4.14c0-.1,0-.2,0-.3,0-.14,0-.27,0-.41,0-.18,.16-.32,.34-.32,.18,0,.33,.14,.34,.32,0,.2,0,.4,0,.59,0,.03,0,.07,0,.12,.04,0,.07,0,.11,0,.3,0,.6,0,.9,0,.62,0,1.07,.45,1.07,1.07,0,2.16,0,4.32,0,6.47,0,.63-.45,1.07-1.08,1.07-2.5,0-5,0-7.5,0-.63,0-1.07-.45-1.07-1.08,0-2.15,0-4.31,0-6.46,0-.63,.44-1.07,1.07-1.08,.3,0,.59,0,.89,0,.03,0,.07,0,.11,0Zm-1.38,3.11v.1c0,1.44,0,2.87,0,4.31,0,.29,.13,.41,.42,.41,2.48,0,4.96,0,7.44,0,.3,0,.42-.12,.42-.42,0-1.43,0-2.86,0-4.3v-.11H4.76Zm6.21-2.41H6.83s0,.07,0,.11c0,.19,0,.37,0,.56,0,.21-.14,.36-.34,.36-.2,0-.34-.15-.35-.36,0-.13,0-.26,0-.39,0-.09,0-.18,0-.27-.04,0-.07,0-.09,0-.3,0-.59,0-.89,0-.27,0-.4,.13-.4,.4,0,.41,0,.82,0,1.22,0,.03,0,.06,0,.09H13.03v-.09c0-.41,0-.82,0-1.22,0-.27-.13-.4-.4-.4-.3,0-.59,0-.89,0-.03,0-.06,0-.1,0,0,.24,0,.47,0,.71,0,.17-.14,.3-.3,.32-.18,.01-.33-.09-.37-.26-.01-.05-.01-.11-.01-.16,0-.2,0-.4,0-.61Z"/></g></g></g></svg>