<?xml version="1.0" encoding="UTF-8"?><svg xmlns="http://www.w3.org/2000/svg" viewBox="0 0 17.79 17.34"><defs><style>.d{fill:#fff;}.e{fill:#c11670;}</style></defs><g id="a"/><g id="b"><g id="c"><g><rect class="e" width="17.79" height="17.34"/><g><path class="d" d="M8.89,13.65c-2.75,0-4.98-2.24-4.98-4.98,0-2.75,2.24-4.98,4.98-4.98,2.75,0,4.98,2.24,4.98,4.98,0,2.75-2.24,4.98-4.98,4.98Zm4.26-4.99c0-2.35-1.91-4.25-4.25-4.25-2.34,0-4.27,1.92-4.26,4.26,0,2.35,1.91,4.25,4.25,4.25,2.34,0,4.27-1.92,4.26-4.26Z"/><path class="d" d="M9.02,8.67s.08,0,.11,0c.48,0,.97,0,1.45,0,.15,0,.26,.06,.33,.2,.06,.12,.06,.24-.01,.36-.06,.1-.15,.16-.27,.17-.03,0-.06,0-.1,0-.61,0-1.21,0-1.82,0-.29,0-.42-.14-.42-.42,0-.81,0-1.62,0-2.43,0-.11,.02-.21,.09-.29,.1-.11,.25-.15,.39-.11,.14,.05,.24,.17,.24,.32,0,.05,0,.1,0,.15,0,.65,0,1.29,0,1.94v.12Z"/></g></g></g></g></svg>