<?xml version="1.0" encoding="utf-8"?>
<!-- Generator: Adobe Illustrator 26.2.1, SVG Export Plug-In . SVG Version: 6.00 Build 0)  -->
<svg version="1.1" id="Capa_1" xmlns="http://www.w3.org/2000/svg" xmlns:xlink="http://www.w3.org/1999/xlink" x="0px" y="0px"
	 viewBox="0 0 510 409" style="enable-background:new 0 0 510 409;" xml:space="preserve">
<style type="text/css">
	.st0{clip-path:url(#SVGID_00000166646712280838474250000018396674887347428524_);}
	.st1{fill:#CF1C6C;}
	.st2{fill:#FFFFFF;}
	.st3{clip-path:url(#SVGID_00000116949399419677001610000006106352016775905164_);}
	.st4{fill:#EEEEEE;}
	.st5{fill:#D1D1D1;}
	.st6{fill:#E1A780;}
	.st7{fill:#F7BE8D;}
	.st8{fill:#463333;}
	.st9{fill:#332120;}
	.st10{fill:#EF9877;}
	.st11{fill:#221E1F;}
	.st12{fill:#776262;}
</style>
<g>
	<defs>
		<rect id="SVGID_1_" width="510" height="409"/>
	</defs>
	<clipPath id="SVGID_00000060025324290644494160000014132040798727399576_">
		<use xlink:href="#SVGID_1_"  style="overflow:visible;"/>
	</clipPath>
	<g style="clip-path:url(#SVGID_00000060025324290644494160000014132040798727399576_);">
		<path class="st1" d="M478.9,370.7h-435c-9,0-16.3-7.3-16.3-16.3c0,0,0,0,0,0V31.6c0-9,7.3-16.3,16.3-16.3c0,0,0,0,0,0h435
			c9,0,16.3,7.3,16.3,16.3c0,0,0,0,0,0v322.9C495.1,363.4,487.8,370.7,478.9,370.7C478.9,370.7,478.9,370.7,478.9,370.7"/>
		<path class="st2" d="M44.3,275.3c-2.2,0-4.5,0-6.7,0c-1.5,0-2.9,0-4.3,0.2c-1.9,0.2-3.7,0.1-5.5-0.3c-0.9-0.1-1.7-0.2-2.6-0.2
			c-4.2,0-8.4,0-12.7,0.1c-3,0.1-6.1,0.3-9.1,0.3c-0.7,0-1.5-0.1-2.2-0.4c-0.6-0.2-1-0.8-1-1.4c-0.2-1.2-0.1-2.5,0.1-3.7
			c0.1-0.8,0.5-1.1,1.1-0.9c2.3,0.6,4.6,0.3,6.9,0.2c0.8,0,1.7-0.1,2.5-0.1c3.8-0.1,7.7-0.3,11.5-0.2c2.5,0,4.9,0.2,7.4,0.6
			c1.5,0.2,3,0.2,4.4,0c0.5-0.1,1-0.1,1.5-0.1c6,0,12.1,0,18.1,0c0.1,0,0.3,0,0.4,0c0.9,0,0.9,0.1,1.1,1.2c0.2,1.2,0.2,2.4,0,3.5
			c-0.2,1.1-0.3,1.2-1.2,1.3c-1.3,0-2.6,0-3.9,0L44.3,275.3"/>
		<path class="st2" d="M27.9,283.2c-8.1,0-16.3,0-24.4,0c-0.6,0-1.2,0-1.8,0.1c-0.7,0-1-0.3-1.2-1c-0.3-1.3-0.3-2.7,0-4
			c0-0.4,0.3-0.7,0.7-0.8c0.5-0.1,0.9-0.2,1.4-0.2c17.1,0,34.3,0,51.4,0c1.1,0,1.3,0.1,1.4,1.5c0.1,1.1,0.1,2.1,0,3.2
			c-0.1,1.1-0.3,1.2-1.2,1.3c-0.3,0-0.7,0-1,0L27.9,283.2"/>
		<path class="st2" d="M7.2,297.4c4.8,0.4,9.7,0.2,14.6,0.3c1.8,0.2,3.6,0.4,5.4,0.8c1.3,0.2,2.7,0.3,4,0.4c1.8,0,3.5,0.1,5.3,0.2
			c2.4,0,4.8-0.2,7.2-0.5c3.1-0.3,6.2-1.2,9.4-1.2c0.7,0,1.3-0.2,2-0.3c0.7-0.1,0.9,0.1,1,1c0.1,1.2,0.1,2.5,0,3.7
			c-0.1,1-0.3,1.2-1.2,1.3c-1.7,0.3-3.4,0.2-5,0.5c-2.6,0.5-5.2,0.8-7.8,1.1c-2.5,0.4-5,0.4-7.5,0.2c-0.7-0.1-1.5-0.1-2.2-0.1
			c-2.6,0-5.2-0.3-7.8-0.8c-1.4-0.3-2.8-0.4-4.2-0.4c-2.1,0-4.2,0-6.3,0c-1.6,0-3.1-0.2-4.6-0.4c-1.2-0.1-2.4-0.2-3.6-0.1
			c-1.1,0-2.3-0.1-3.4-0.3c-1.2-0.2-1.4-0.5-1.5-1.9c0-0.7,0-1.3,0.1-2c0.2-1.1,0.3-1.2,1.2-1.3C3.8,297.5,5.5,297.4,7.2,297.4"/>
		<path class="st2" d="M44.8,294.3c-3.5-0.6-7-0.1-10.5-0.4c-2.3-0.2-4.6-0.2-7-0.3c-1.9-0.2-3.8-0.4-5.7-0.8
			c-1.7-0.3-3.4-0.4-5-0.5c-3,0-6,0-9,0c-1.3,0-2.6-0.1-3.9-0.5C2.2,291.3,2,291,2,289.1c0-0.7,0-1.3,0-2c0.1-0.9,0.3-1.1,1-1
			c4,0.5,8.1,0.2,12.1,0.2c3,0.1,6,0.3,9,0.8c1.2,0.2,2.5,0.3,3.7,0.4c2.8,0.1,5.5,0.3,8.3,0.4c0.1,0,0.2,0,0.3,0
			c2.8,0,5.6,0,8.4,0.2c1.8,0,3.6-0.2,5.3-0.7c1.3-0.3,2.5-0.5,3.8-0.8c0.4-0.1,0.6,0.1,0.7,0.5c0.2,1.5,0.2,3,0,4.5
			c0,0.4-0.3,0.8-0.7,0.9c-0.3,0.1-0.6,0.2-0.9,0.2c-1.6,0.2-3.1,0.6-4.7,0.9C47.1,294.2,46,294.3,44.8,294.3"/>
		<path class="st2" d="M487.6,44.8c-12.4,0-22.4-10-22.4-22.4S475.2,0,487.6,0C500,0,510,10,510,22.4c0,0,0,0,0,0
			C510,34.7,500,44.8,487.6,44.8 M487.6,9.1c-7.3,0-13.2,5.9-13.2,13.2c0,7.3,5.9,13.2,13.2,13.2c7.3,0,13.2-5.9,13.2-13.2
			c0,0,0,0,0,0C500.9,15.1,494.9,9.1,487.6,9.1"/>
	</g>
</g>
<g transform="translate(28.352 15.277)">
	<g>
		<defs>
			<path id="SVGID_00000041290333037199375330000009875583254731600264_" d="M10,0h447.6c5.5,0,10,4.5,10,10v335.4
				c0,5.5-4.5,10-10,10H10c-5.5,0-10-4.5-10-10V10C0,4.5,4.5,0,10,0z"/>
		</defs>
		<clipPath id="SVGID_00000158714981678601843570000002036925113010229131_">
			<use xlink:href="#SVGID_00000041290333037199375330000009875583254731600264_"  style="overflow:visible;"/>
		</clipPath>
		<g style="clip-path:url(#SVGID_00000158714981678601843570000002036925113010229131_);">
			<path class="st4" d="M298.2,385.5c-14.4,5.2-36.5,8.8-61.5,8.2s-53.3-9.5-53.3-9.5c-13.6-4.4-10-15.1-10-15.1
				c0.2-4.1,4.2-9.2,4.2-9.2c0.4-2.6,0.3-10.4,0-20.1c-0.7-24.4-2.8-61.4-2.8-61.4c3.5-20.9,1.2-28.3,1.2-28.3
				c1.7-0.8,3.4-1.5,5.1-2c20.9-6.6,67.9-8.1,67.9-8.1c17.7-1,35.4,0.3,52.7,4c2.6,0.6,4,0.9,4,0.9l-1.3,50.4l-1.1,38.3l-0.9,29.3
				C302.4,363.1,312.6,380.2,298.2,385.5"/>
			<path class="st5" d="M305.7,245.1l-1.3,50.4l-1.1,38.3c-2.3-2.5-4.5-5-6.7-7.6c-10.9,1.4-23.3-2.7-29.3-11.4
				c-1.8-2.5-1.8-6.6,0.7-8.4c-1.3-2.5-2.7-5.1-2.7-7.9c0-2.8,2-5.8,4.8-6c-3.2-2.2-4-6.5-1.8-9.6c1.2-1.7,3-2.8,5.1-3
				c-3.3-2.8-4.1-7.6-1.8-11.4c4.1-6.3,22.3-4,24.2,3.8c-2.3-9.9-0.1-20.2,6.1-28.3C304.3,244.7,305.8,245.1,305.7,245.1"/>
			<path class="st6" d="M344.8,292.3l5.3,23.8l-41.1-5.8c0,0,15.4-31.4,15.4-31.9C324.4,277.8,344.8,292.3,344.8,292.3"/>
			<path class="st4" d="M318.5,248.7c10.7,3.8,21.5,21.7,26.3,43.6c0,0-11.8-3.7-37.5,6.4l-12.8-34.4
				C294.4,264.2,287,237.5,318.5,248.7"/>
			<path class="st6" d="M264.6,246.6l1.5-26.2l-47.2-5.8c0,0-0.1,13.8-0.3,23.1c6.4,0.9,26.8,4.1,44.4,10.9
				C264,247.4,264.6,246.6,264.6,246.6"/>
			<path class="st7" d="M218.6,237.8c-0.1,4.5-0.1,8.1-0.2,8.4c-1.3,7.6,16.1,22.9,21,22.8c7.3,0,19.3-14.8,23.6-20.4
				C245.4,241.9,225,238.7,218.6,237.8"/>
			<path class="st7" d="M185.6,148.6c0,0-5.6-13.6-18-10.9c-0.7,0.1-12.6,6.9-0.7,28.8c0,0,4.7,20.2,21.7,13.9
				C188.7,180.4,190,159.3,185.6,148.6"/>
			<path class="st6" d="M173.6,146c-3.4,0.3-6,3.1-6.1,6.5c-0.1,3.2,1.8,6.1,4.1,8.5c1.1,1,2.1,2.1,2.8,3.4c0.7,1.5,0.5,3.2,0.8,4.8
				c0.3,1.3,0.9,2.6,1.7,3.6c1.1,1.5,2.9,2.2,4.7,2.1c1.9-0.4,3.2-2.1,3.1-4c-0.1-1.8-0.8-3.6-2-5c-0.8-1.1-1.8-2.2-1.8-3.5
				c-0.1-1.2,0.6-2.2,0.9-3.4C183.2,154.2,180.2,145.8,173.6,146"/>
			<path class="st8" d="M267.3,76.5c0,0,41,8.6,49,54.7c0,0,0.8,5.3,9.7,4.7c6.4-9.6,12-22,12.5-36.1c0.3-6.8-0.6-13.6-2.7-20
				c-0.5-1.5-1.1-3-1.8-4.5c-4.5-9.3-18.7-29.6-58.2-28.9c0,0-3.4-1-3.9-6.1c0,0-0.8-15-12.1-18.5c-7-2.2-13.8-1.8-22,8.8
				c0,0-0.4-11-10.4-12.9c0,0-12.2-1.8-18.8,10.9c0,0-1.4-11.7-13.2-13c-7.6-0.8-27,1.6-30.9,44.8c-0.1,0.8-0.1,1.7-0.2,2.5
				c-0.9,8.5-1.2,17-0.7,25.5c0.3,7.1,1.1,14.2,2.4,21.2C182.2,111,240.5,113.5,267.3,76.5"/>
			<path class="st9" d="M316.3,131.3c-8-46.1-49-54.7-49-54.7c-26.7,37-85,34.5-101.2,33c2.7,14.2,8,28.9,17.9,40.2l122.5,8
				c7.5-6.2,14.1-13.5,19.5-21.7C317,136.5,316.3,131.3,316.3,131.3"/>
			<path class="st7" d="M312.2,152.3c-0.3,8.1-1,16.3-2.1,24.3c-0.6,3-1.3,5.9-2.3,8.7c-0.6,1.9-1.4,4-2.3,6.2
				c-7.4,17.8-25.5,45.1-66.9,43.2c0,0-41.2-1-55.3-46.1c-0.4-1.2-0.7-2.4-1-3.6c0,0-0.1-0.5-0.2-1.5c-1-7.5-4.7-41,2.3-67
				c0,0,60.2,4,84.3-32.8c59.3,23.3,39.2,76.1,39.2,76.1C309.6,157.6,311.1,155,312.2,152.3"/>
			<path class="st7" d="M309.5,156.3c0,0,5.8-13.1,17.9-10.1c0.6,0.2,12.2,7,0,27.9c0,0-5,19.5-21.6,12.9
				C305.7,187.1,304.9,166.6,309.5,156.3"/>
			<path class="st10" d="M239.4,152.5c-0.6,2-0.1,4.7-0.3,6.7c-0.3,2.4-0.7,4.7-1.3,7c-0.7,2.8-1.8,3.9-3.3,6.3
				c-4.5,7.3,6.6,9.9,11.6,8c2-0.8,3.8-1.9,5.6-3.1c-0.1,0.1-1,3.1-1.3,3.6c-0.5,0.9-1,1.7-1.7,2.5c-2,2-5.5,2.5-8.2,2.3
				c-6.6-0.5-13.2-7-10.7-13.9c1.2-3.2,4.1-4.8,5.4-8C236.8,160.2,238.2,156.4,239.4,152.5"/>
			<path class="st6" d="M322.8,154.2c3.1,0.5,5.1,3.9,4.8,7c-0.3,3.1-2.3,5.8-4.7,7.8c-1.1,0.8-2.1,1.9-2.9,3
				c-0.8,1.4-0.8,3.1-1.2,4.6c-0.4,1.3-1,2.4-2,3.3c-1.1,1.3-2.8,1.9-4.4,1.5c-1.7-0.7-2.7-2.4-2.4-4.2c0.3-1.7,1.1-3.4,2.4-4.6
				c1-0.9,1.7-2,2-3.2c0-1.1-0.1-2.3-0.4-3.4C313.3,161.1,316.9,153.2,322.8,154.2"/>
			<path class="st11" d="M206.2,156.9c0.1-3.1,0.7-6.2,1.9-9.1c0.9-2.3,2.5-4.9,5.3-4.9c1.2,0.1,2.4,0.5,3.3,1.4
				c3.2,2.8,3.3,7.2,2.8,11.1c-0.2,2.2-0.7,4.3-1.6,6.3c-1.2,2.5-4.4,5.1-7.7,3.9C206.9,164.3,206.3,159.5,206.2,156.9"/>
			<path class="st2" d="M214.1,146.1c0,1.5-1.4,4.3-3.2,4.5c-2,0.2-1.7-1.9-0.7-3.7C211.4,144.8,214.1,143.7,214.1,146.1"/>
			<path class="st11" d="M228.1,137.5c-0.2,0-0.5-0.1-0.7-0.3c-11.9-10.8-21.6-6.6-26.4-3.2c-0.4,0.5-1.1,0.5-1.6,0.1
				c-0.3-0.4-0.4-0.9-0.1-1.3c0.1-0.2,0.3-0.3,0.5-0.4l0,0c4.2-3.1,15.5-8.8,28.9,3.3c0.4,0.4,0.4,1,0.1,1.4
				C228.6,137.4,228.3,137.5,228.1,137.5"/>
			<path class="st11" d="M284.6,160c0-0.3-4.9-2.8-10.6-3.3c-6.7-0.6-10.2,2.1-11.5,1.8c0.4-0.6,0.8-1.1,1.2-1.6
				c-0.8,0-1.5,0.2-2.3,0.4l2-1.9l-2.1,0.4c0.2,0,1.2-1.1,1.5-1.4c0.7-0.6,1.5-1.1,2.4-1.5c4.1-2,8.7-2.8,13.2-2.1
				c3.5,0.6,6.8,2.3,8.5,5.7c-0.6-0.1-1.2-0.1-1.8-0.1c0.4,0.9,0.7,1.9,0.9,2.9c-0.6-0.2-1.3-0.5-1.9-0.8
				C284.3,159,284.5,159.5,284.6,160"/>
			<path class="st11" d="M289.4,138.5c-0.3,0-0.6-0.1-0.8-0.4c-4.8-6.2-9.9-9.4-15.2-9.3c-8.7,0.1-15.2,8.7-15.3,8.8
				c-0.3,0.5-0.9,0.6-1.4,0.3s-0.6-0.9-0.3-1.4c0-0.1,0.1-0.1,0.1-0.2c0.3-0.4,7.2-9.5,16.9-9.6c6,0,11.7,3.3,16.8,10.1
				c0.3,0.4,0.2,1.1-0.2,1.4C289.8,138.4,289.6,138.5,289.4,138.5"/>
			<path class="st7" d="M309.1,249c1-2.7,2.3-5.3,2.7-8.2s-0.3-6.1-2.6-7.8c-4.2-3-10,0.7-12.9,4.9c-6,8.8-7.5,19.9-4,30
				c-2.7-7.6-21.1-8.1-24.5-1.4c-1.9,3.9-0.6,8.6,3,11.1c-3.7,0.7-6.2,4.4-5.5,8.1c0.4,2,1.7,3.8,3.5,4.7c-2.8,0.4-4.4,3.6-4.2,6.4
				c0.3,2.8,1.9,5.3,3.5,7.6c-2.3,2-1.9,6,0.1,8.4c12.6,14.7,44.4,11.9,48.7-8.5c0.6-2.9,0.7-5.8,0.5-8.7
				C316.5,280.1,303.3,264.9,309.1,249"/>
			<path class="st7" d="M305.2,285.7c7.1,2.8,16.5,9.7,26.8,15.1c8.6,4.5,16.8,7.4,18.1,15.3c2.3,13.5-3.3,19.1-10.1,22.8
				c-7.3,4-16.1,0.7-23.5-3.1c-10-5-16.3-13.7-25.2-20.5L305.2,285.7z"/>
			<path class="st6" d="M143.3,294c0,0-7,16.4-8.6,27.3c0,0,34,5.4,34,5.1c0-0.3,6.9-31,6.9-31S157.9,285.1,143.3,294"/>
			<path class="st4" d="M177.6,250.5c0,0-19.4,0.4-34.3,43.4c0,0,13.8-1.2,32.1,11.9L177.6,250.5z"/>
			<path class="st5" d="M212.4,313.5c-3.7,5.8-10.1,9.6-17,11c-5.7,5.1-11.6,10.6-17.7,15.4c-0.7-24.4-2.8-61.4-2.8-61.4
				c3.5-20.9,1.2-28.3,1.2-28.3c1.7-0.8,3.4-1.5,5.1-2c4.6,7.4,6.2,16.3,4.5,24.8c1.6-7.6,18.1-10.1,22-4c2.1,3.6,1.5,8.1-1.5,11
				c2.7,0.3,4.9,2.3,5.6,4.9c0.7,2.7-0.2,5.5-2.4,7.2c2.6,0.1,4.4,3,4.5,5.7c0.1,2.7-1.1,5.3-2.3,7.7
				C213.9,307.1,213.9,311,212.4,313.5"/>
			<path class="st7" d="M170.3,251.7c-1.1-2.5-2.5-5-3-7.7s-0.1-5.9,2-7.7c3.7-3.2,9.4,0.1,12.4,4c6.1,8.2,8.2,18.8,5.6,28.7
				c2-7.5,19.2-9.1,22.8-2.8c2,3.7,1.1,8.2-2.1,10.9c2.7,0.4,4.9,2.5,5.5,5.2c0.5,2.7-0.6,5.5-2.9,7.1c2.6,0.2,4.4,3.2,4.3,5.9
				s-1.4,5.2-2.8,7.5c2.3,1.8,2.1,5.7,0.4,8.1c-10.9,14.9-40.8,14.1-46-5.2c-0.7-2.7-1-5.5-1-8.4
				C165.1,282.1,176.6,266.7,170.3,251.7"/>
			<path class="st7" d="M175.4,288.9c-8.6,7.7-34.8,19.1-37.7,24.4c-2.9,5.3-4.5,11.6-3.1,17.5c2.1,8.8,11.5,15.2,20.4,14
				c3.7-0.5,7.1-2.1,10.5-3.7c12-5.9,23.5-16.4,34.3-24.2L175.4,288.9z"/>
			<path class="st12" d="M205.5,67.3c-1,0.3-26.5,8.3-41.9,21c-0.4-8.5-0.2-17,0.7-25.5c0.1-0.9,0.1-1.7,0.2-2.5
				C173.7,64.3,190.3,69.9,205.5,67.3"/>
			<path class="st12" d="M338.5,99.8c-15.2-12.9-39.4-21.5-39.4-21.5c12.1,2.7,25.4,0,35-3c0.7,1.4,1.3,2.9,1.8,4.5
				C337.9,86.2,338.8,93,338.5,99.8"/>
			<path class="st2" d="M148.8,133.7c-0.4,0-0.8-0.1-1.1-0.4l-6.5-5.4c-0.7-0.6-0.8-1.7-0.2-2.4c0.6-0.7,1.7-0.8,2.4-0.2l6.5,5.4
				c0.7,0.6,0.8,1.7,0.2,2.4C149.8,133.5,149.3,133.7,148.8,133.7 M135.8,122.9c-0.4,0-0.8-0.1-1.1-0.4l-6.5-5.4
				c-0.7-0.6-0.9-1.7-0.3-2.4s1.7-0.9,2.4-0.3c0,0,0,0,0,0l6.5,5.4c0.7,0.6,0.8,1.7,0.2,2.4C136.8,122.7,136.3,122.9,135.8,122.9
				 M122.8,112.2c-0.4,0-0.8-0.1-1.1-0.4l-3.3-2.7c-0.7-0.6-0.8-1.7-0.2-2.4c0.6-0.7,1.7-0.8,2.4-0.2l3.3,2.7
				c0.7,0.6,0.8,1.7,0.2,2.4C123.7,111.9,123.3,112.2,122.8,112.2"/>
			<path class="st2" d="M140.8,157.7L140.8,157.7l-8.5-0.3c-0.9,0-1.7-0.8-1.7-1.8c0-0.9,0.8-1.7,1.8-1.7l0,0l8.5,0.3
				c0.9,0,1.7,0.8,1.7,1.8C142.5,157,141.7,157.7,140.8,157.7 M123.9,157.1L123.9,157.1l-8.5-0.3c-0.9,0-1.7-0.8-1.7-1.8
				c0-0.9,0.8-1.7,1.8-1.7l8.5,0.3c0.9,0,1.7,0.8,1.7,1.8C125.6,156.4,124.8,157.1,123.9,157.1 M107,156.6
				C107,156.6,106.9,156.6,107,156.6l-5.3-0.2c-0.9,0-1.7-0.8-1.7-1.8c0-0.9,0.8-1.7,1.8-1.7c0,0,0,0,0,0l5.3,0.2
				c0.9,0,1.7,0.8,1.6,1.8C108.6,155.8,107.9,156.6,107,156.6"/>
			<path class="st2" d="M107.4,208.8c-0.9,0-1.7-0.8-1.7-1.7c0-0.7,0.4-1.3,1-1.5l2.1-1c0.9-0.4,1.9,0,2.3,0.8s0,1.9-0.8,2.3l0,0
				l-2.1,1C107.9,208.8,107.7,208.8,107.4,208.8 M117.2,204.2c-0.9,0-1.7-0.8-1.7-1.7c0-0.7,0.4-1.3,1-1.5l7.6-3.6
				c0.9-0.4,1.9,0,2.3,0.8s0,1.9-0.8,2.3l0,0l-7.6,3.6C117.7,204.1,117.4,204.2,117.2,204.2 M132.4,196.9c-0.9,0-1.7-0.8-1.7-1.7
				c0-0.7,0.4-1.3,1-1.5l7.6-3.7c0.9-0.4,1.9,0,2.3,0.8c0.4,0.9,0,1.9-0.8,2.3l-7.6,3.6C132.9,196.8,132.7,196.9,132.4,196.9"/>
			<path class="st2" d="M353.2,141.3c-0.9,0-1.7-0.8-1.7-1.7c0-0.6,0.3-1.2,0.8-1.5l7.2-4.4c0.8-0.5,1.9-0.2,2.4,0.6
				c0.5,0.8,0.2,1.9-0.6,2.4l0,0l-7.2,4.4C353.9,141.2,353.5,141.3,353.2,141.3 M367.7,132.5c-0.9,0-1.7-0.8-1.7-1.7
				c0-0.6,0.3-1.2,0.8-1.5l7.2-4.4c0.8-0.5,1.9-0.2,2.4,0.6s0.2,1.9-0.6,2.4l-7.2,4.4C368.3,132.4,368,132.5,367.7,132.5
				 M382.2,123.8c-0.9,0-1.7-0.8-1.7-1.7c0-0.6,0.3-1.2,0.8-1.5l3.7-2.2c0.8-0.5,1.9-0.2,2.4,0.6s0.2,1.9-0.6,2.4l-3.7,2.2
				C382.8,123.7,382.5,123.8,382.2,123.8"/>
			<path class="st2" d="M396.5,170.7c-0.1,0-0.1,0-0.2,0L391,170c-0.9-0.1-1.6-1-1.4-2c0.1-0.9,0.9-1.5,1.8-1.4l5.3,0.6
				c0.9,0.1,1.6,1,1.5,1.9C398.1,170,397.4,170.7,396.5,170.7 M382.8,169.1c-0.1,0-0.1,0-0.2,0l-8.4-1c-0.9-0.1-1.6-1-1.5-1.9
				c0.1-0.9,0.9-1.5,1.8-1.5l8.4,1c0.9,0.1,1.6,1,1.5,1.9C384.4,168.4,383.7,169.1,382.8,169.1 M366,167.1c-0.1,0-0.1,0-0.2,0
				l-8.4-1c-0.9-0.1-1.6-1-1.4-2c0.1-0.9,0.9-1.5,1.8-1.4l8.4,1c0.9,0.1,1.6,1,1.5,1.9C367.6,166.5,366.9,167.1,366,167.1"/>
			<path class="st2" d="M383.1,221.7c-0.3,0-0.7-0.1-1-0.3l-1.9-1.3c-0.8-0.5-1-1.6-0.5-2.4c0.5-0.8,1.6-1,2.4-0.5l1.9,1.3
				c0.8,0.5,1,1.6,0.5,2.4C384.2,221.4,383.6,221.7,383.1,221.7 M374.1,215.6c-0.3,0-0.7-0.1-1-0.3l-7-4.7c-0.8-0.5-1-1.6-0.5-2.4
				c0.5-0.8,1.6-1,2.4-0.5l0,0l7,4.7c0.8,0.5,1,1.6,0.5,2.4C375.2,215.3,374.7,215.6,374.1,215.6 M360.1,206.1c-0.3,0-0.7-0.1-1-0.3
				l-7-4.7c-0.8-0.5-1-1.6-0.5-2.4c0.5-0.8,1.6-1,2.4-0.5l7,4.7c0.8,0.5,1,1.6,0.5,2.4C361.2,205.8,360.7,206.1,360.1,206.1"/>
			<path class="st11" d="M223,207.1c5.2,3.4,10.7,6.5,17.2,6c6.4-0.5,12.3-3.6,17.7-6.8c2.8-1.6,0.2-6-2.5-4.3
				c-4.6,2.8-9.7,5.7-15.2,6.1c-5.6,0.4-10.1-2.4-14.7-5.3C222.9,201,220.4,205.3,223,207.1L223,207.1z"/>
		</g>
	</g>
</g>
</svg>
