<svg xmlns="http://www.w3.org/2000/svg" xmlns:xlink="http://www.w3.org/1999/xlink" width="510" height="408.989" viewBox="0 0 510 408.989"><defs><clipPath id="a"><rect width="510" height="408.989" fill="none"/></clipPath><clipPath id="b"><path d="M10,0H457.592a10,10,0,0,1,10,10V345.434a10,10,0,0,1-10,10H10a10,10,0,0,1-10-10V10A10,10,0,0,1,10,0Z" fill="none"/></clipPath></defs><g clip-path="url(#a)"><path d="M468.236,364.822H33.192a16.274,16.274,0,0,1-16.275-16.275V25.662A16.274,16.274,0,0,1,33.192,9.387H468.236A16.274,16.274,0,0,1,484.51,25.662V348.548a16.274,16.274,0,0,1-16.275,16.275" transform="translate(10.615 5.89)" fill="#cf1c6c"/><path d="M44.267,171.664c-2.226,0-4.454-.01-6.681,0a35.277,35.277,0,0,0-4.344.187,19.383,19.383,0,0,1-5.55-.264,16.535,16.535,0,0,0-2.623-.2c-4.218.008-8.437-.039-12.653.055-3.035.068-6.067.272-9.1.251a6.347,6.347,0,0,1-2.192-.389,1.529,1.529,0,0,1-1.006-1.375,11.353,11.353,0,0,1,.075-3.667c.142-.8.456-1.064,1.089-.889,2.275.631,4.57.286,6.855.221.841-.024,1.684-.1,2.526-.114,3.846-.083,7.688-.272,11.535-.233a58.814,58.814,0,0,1,7.366.576A16.842,16.842,0,0,0,34,165.787a11.8,11.8,0,0,1,1.514-.1q9.059-.01,18.12,0c.135,0,.27,0,.405,0,.885.037.946.107,1.105,1.168a12.013,12.013,0,0,1,.011,3.55c-.159,1.1-.265,1.242-1.172,1.258-1.315.023-2.632.008-3.948.008H44.267" transform="translate(0 103.684)" fill="#fff"/><path d="M27.806,176.32q-12.189,0-24.378,0c-.605,0-1.211.049-1.816.068-.657.02-1.032-.264-1.193-1.035a10.244,10.244,0,0,1,.02-4.018.974.974,0,0,1,.687-.809,4.328,4.328,0,0,1,1.4-.2q25.694,0,51.384,0c1.144,0,1.258.111,1.4,1.5a14.113,14.113,0,0,1-.026,3.188c-.135,1.061-.321,1.243-1.178,1.291-.335.02-.674.008-1.011.008H27.806" transform="translate(0.144 106.876)" fill="#fff"/><path d="M6.926,182.848c4.85.43,9.709.161,14.564.316a51.675,51.675,0,0,1,5.421.789,34.922,34.922,0,0,0,4.03.394c1.753.037,3.506.088,5.258.186a49.9,49.9,0,0,0,7.162-.5c3.128-.278,6.2-1.18,9.351-1.185.669,0,1.338-.2,2.01-.259.736-.062.893.081,1.012.975a16.975,16.975,0,0,1,.024,3.681c-.09,1.025-.309,1.186-1.16,1.349-1.67.319-3.367.2-5.037.5-2.6.465-5.216.822-7.835,1.113a32.315,32.315,0,0,1-7.47.216,16.906,16.906,0,0,0-2.225-.075,41.892,41.892,0,0,1-7.75-.82,24.03,24.03,0,0,0-4.23-.426c-2.091.01-4.183-.016-6.274-.007a34.661,34.661,0,0,1-4.64-.384,26.4,26.4,0,0,0-3.641-.1,23.056,23.056,0,0,1-3.429-.264c-1.178-.164-1.427-.49-1.54-1.938A8.981,8.981,0,0,1,.6,184.453c.153-1.068.275-1.2,1.17-1.31a43.64,43.64,0,0,1,5.153-.295" transform="translate(0.318 114.558)" fill="#fff"/><path d="M44.051,184.013c-3.489-.576-7-.107-10.5-.438-2.316-.218-4.646-.228-6.97-.34a55.493,55.493,0,0,1-5.724-.778A33.364,33.364,0,0,0,15.818,182c-3,0-6,.011-9-.039a12.356,12.356,0,0,1-3.911-.493c-1.473-.511-1.678-.817-1.694-2.659,0-.656-.018-1.315.036-1.966.072-.866.3-1.105.985-1.011,4.038.548,8.085.158,12.126.205a60.09,60.09,0,0,1,8.964.835,33.321,33.321,0,0,0,3.725.381c2.76.133,5.52.3,8.281.448.1.007.2.021.3.021,2.8,0,5.59.015,8.383.244a17.372,17.372,0,0,0,5.314-.69c1.256-.288,2.524-.508,3.787-.771.369-.076.579.083.654.531a13.7,13.7,0,0,1,0,4.516,1.07,1.07,0,0,1-.716.932,4.605,4.605,0,0,1-.885.249c-1.58.184-3.126.623-4.689.936a16.073,16.073,0,0,1-3.424.343" transform="translate(0.755 110.316)" fill="#fff"/><path d="M308.247,44.773a22.387,22.387,0,1,1,22.387-22.387,22.413,22.413,0,0,1-22.387,22.387m0-35.633a13.247,13.247,0,1,0,13.248,13.246A13.262,13.262,0,0,0,308.247,9.14" transform="translate(179.365 0)" fill="#fff"/></g><g transform="translate(28.352 15.277)"><g clip-path="url(#b)"><path d="M248.926,302.437c-14.385,5.237-36.5,8.84-61.458,8.155s-53.317-9.451-53.317-9.451c-13.573-4.388-10-15.062-10-15.062.212-4.127,4.161-9.172,4.161-9.172.365-2.632.3-10.368.02-20.093-.7-24.414-2.773-61.357-2.773-61.357,3.51-20.864,1.2-28.3,1.2-28.3a35.347,35.347,0,0,1,5.123-2c20.89-6.627,67.9-8.1,67.9-8.1a196.978,196.978,0,0,1,52.676,4.021c2.571.558,3.994.937,3.994.937l-1.349,50.4-1.121,38.338-.866,29.319s10.178,17.129-4.2,22.36" transform="translate(49.282 83.035)" fill="#eee"/><path d="M220.886,160.322l-1.349,50.4-1.123,38.338c-2.287-2.453-4.454-5.045-6.707-7.61-10.948,1.369-23.256-2.685-29.293-11.379-1.774-2.545-1.834-6.573.7-8.355-1.336-2.479-2.711-5.1-2.685-7.916s1.981-5.843,4.786-5.983a6.915,6.915,0,0,1,3.257-12.595,8.918,8.918,0,0,1-1.841-11.366c4.067-6.341,22.319-3.989,24.207,3.821a33.97,33.97,0,0,1,6.054-28.295c2.573.558,4,.937,4,.937" transform="translate(84.858 84.731)" fill="#d1d1d1"/><path d="M243.086,194.372l5.32,23.818-41.116-5.844s15.419-31.4,15.419-31.942,20.377,13.968,20.377,13.968" transform="translate(101.714 97.91)" fill="#e1a780"/><path d="M222.737,163.285c10.666,3.808,21.46,21.749,26.257,43.556,0,0-11.794-3.706-37.523,6.365L198.64,178.772s-7.451-26.751,24.1-15.487" transform="translate(95.805 85.441)" fill="#eee"/><path d="M197.728,173.215l1.51-26.171-47.193-5.771s-.135,13.781-.285,23.146c6.352.884,26.754,4.088,44.392,10.9,1-1.3,1.575-2.1,1.575-2.1" transform="translate(66.871 73.366)" fill="#e1a780"/><path d="M151.871,155.495c-.073,4.549-.15,8.056-.216,8.435-1.331,7.61,16.086,22.854,21.041,22.843,7.267-.018,19.287-14.8,23.569-20.381-17.64-6.809-38.042-10.014-44.394-10.9" transform="translate(66.76 82.29)" fill="#f7be8d"/><path d="M140.711,105s-5.61-13.63-17.98-10.871c-.651.145-12.567,6.948-.667,28.811,0,0,4.659,20.21,21.712,13.881,0,0,1.32-21.107-3.065-31.82" transform="translate(44.937 43.556)" fill="#f7be8d"/><path d="M126.426,99.1a6.662,6.662,0,0,0-6.116,6.474c-.075,3.165,1.808,6.147,4.147,8.508a12.477,12.477,0,0,1,2.84,3.429c.661,1.507.457,3.195.763,4.79a8.011,8.011,0,0,0,1.74,3.618,5.254,5.254,0,0,0,4.668,2.073,4.049,4.049,0,0,0,3.149-3.977,8.525,8.525,0,0,0-2.029-4.96c-.812-1.089-1.764-2.2-1.842-3.512-.068-1.167.578-2.246.9-3.369,1.416-4.868-1.561-13.282-8.224-13.073" transform="translate(47.136 46.903)" fill="#e1a780"/><path d="M221.68,79.966s41.015,8.622,49,54.717c0,0,.786,5.271,9.682,4.666,6.376-9.623,11.988-21.985,12.548-36.141a59.177,59.177,0,0,0-2.666-20.026,29.849,29.849,0,0,0-1.767-4.453c-4.454-9.267-18.685-29.6-58.219-28.941,0,0-3.377-1.011-3.9-6.14,0,0-.812-14.963-12.116-18.459-7.019-2.174-13.76-1.828-22.021,8.821,0,0-.446-11.015-10.382-12.862,0,0-12.2-1.776-18.771,10.873,0,0-1.429-11.724-13.168-13.013-7.584-.838-26.985,1.649-30.946,44.765-.08.825-.146,1.668-.213,2.526a160.532,160.532,0,0,0-.718,25.463,150.787,150.787,0,0,0,2.431,21.181c16.209,1.488,74.5,4,101.228-32.977" transform="translate(45.583 -3.425)" fill="#463333"/><path d="M269.669,111.134c-7.984-46.093-49-54.717-49-54.717C193.944,93.4,135.651,90.882,119.442,89.394c2.7,14.152,7.988,28.913,17.941,40.156l122.458,7.957a99.141,99.141,0,0,0,19.51-21.705c-8.9.6-9.682-4.668-9.682-4.668" transform="translate(46.593 20.122)" fill="#332120"/><path d="M260.188,129.328a232,232,0,0,1-2.127,24.327,64.824,64.824,0,0,1-2.313,8.739c-.612,1.881-1.377,3.982-2.306,6.241-7.392,17.847-25.5,45.059-66.946,43.238,0,0-41.223-.957-55.334-46.055-.36-1.164-.713-2.36-1.038-3.576,0,0-.08-.532-.205-1.53-.978-7.485-4.739-41.017,2.326-67,0,0,60.232,4,84.34-32.8,59.3,23.3,39.236,76.126,39.236,76.126a33.777,33.777,0,0,0,4.366-7.711" transform="translate(51.99 22.943)" fill="#f7be8d"/><path d="M209.036,109.492s5.818-13.07,17.887-10.1c.636.156,12.165,7.029-.011,27.922,0,0-5.039,19.468-21.619,12.932,0,0-.806-20.475,3.743-30.749" transform="translate(100.427 46.809)" fill="#f7be8d"/><path d="M168.439,103.064c-.63,1.959-.052,4.672-.29,6.741a48.146,48.146,0,0,1-1.331,6.969c-.742,2.763-1.826,3.932-3.266,6.29-4.467,7.315,6.583,9.932,11.617,8a28.927,28.927,0,0,0,5.572-3.082c-.15.1-1.042,3.128-1.343,3.623a13.639,13.639,0,0,1-1.673,2.506c-1.977,2-5.5,2.524-8.186,2.329-6.581-.482-13.212-7.009-10.7-13.892,1.185-3.25,4.1-4.788,5.4-7.953q2.331-5.678,4.2-11.529" transform="translate(70.971 49.391)" fill="#ef9877"/><path d="M220.725,104.168c3.092.495,5.084,3.911,4.809,7.009s-2.295,5.8-4.658,7.841a11.814,11.814,0,0,0-2.929,3.029c-.758,1.4-.758,3.066-1.208,4.589a8.039,8.039,0,0,1-1.959,3.336,4.562,4.562,0,0,1-4.43,1.5,4,4,0,0,1-2.407-4.238,8.648,8.648,0,0,1,2.366-4.615,7.066,7.066,0,0,0,2.039-3.221A10.923,10.923,0,0,0,211.9,116c-.749-4.912,2.845-12.792,8.826-11.837" transform="translate(102.109 50.034)" fill="#e1a780"/><path d="M214.689,168.2c-6.852,8.689-26.711,15.134-35.283,14.411a18.122,18.122,0,0,1-2.012-.293c-.2-.039-.4-.078-.592-.125-10.463-2.257-25.875-12.328-29.073-15.568-11.592-11.732-8.7-35.588-6.617-37.923,1.115-1.252,34.064-16.961,41.844-16.319a5.108,5.108,0,0,1,.579.091l.006,0c3.436.845,37.611,19.147,39.067,21.427,1.195,1.876.48,23.644-7.919,34.3" transform="translate(58.986 55.224)" fill="#fff"/><path d="M225.061,102.716s-15.809,33.823-36.732,46.615l-.212-2.628s18.823-13.931,36.847-48.523a5.944,5.944,0,0,1,.1,4.536" transform="translate(89.684 46.327)" fill="#fff"/><path d="M220.1,124.805a47.811,47.811,0,0,1-1.632,4.684c-8.228,6.622-26,22.8-34.678,22.846l1-2.446A130.864,130.864,0,0,0,220.1,124.805" transform="translate(86.966 63.033)" fill="#fff"/><path d="M144.137,111.176a25.557,25.557,0,0,1,1.878-9.112c.854-2.3,2.493-4.947,5.258-4.925a5.315,5.315,0,0,1,3.309,1.37c3.239,2.759,3.309,7.236,2.838,11.142a20.177,20.177,0,0,1-1.57,6.324c-1.177,2.479-4.373,5.094-7.747,3.857-3.336-1.225-3.935-5.963-3.966-8.656" transform="translate(62.088 45.674)" fill="#221e1f"/><path d="M151.484,141.708l-.246,2.625c-9.187-4.441-21.909-33.317-23.378-43.175-.669-3.932-.181-5.629,1.063-6.549,3.772,22.89,22.561,47.1,22.561,47.1" transform="translate(51.686 44.086)" fill="#fff"/><path d="M153.707,148.458c-3.608-.636-18.065-15.62-23.266-21.116q-.547-1.745-1.038-3.579s-.078-.532-.207-1.525c7.937,10.305,23.948,23.639,23.948,23.639Z" transform="translate(52.713 61.422)" fill="#fff"/><path d="M150.759,99.633c.013,1.51-1.38,4.327-3.165,4.5-2.047.19-1.71-1.87-.667-3.715,1.125-1.99,3.813-3.113,3.833-.78" transform="translate(63.318 46.418)" fill="#fff"/><path d="M168.719,97.386a1,1,0,0,1-.671-.259c-11.854-10.764-21.632-6.6-26.407-3.165a1.158,1.158,0,0,1-1.592.114,1.049,1.049,0,0,1-.117-1.313,1,1,0,0,1,.495-.382l.049-.036c4.238-3.053,15.536-8.84,28.913,3.307a1,1,0,0,1-.671,1.735" transform="translate(59.339 40.103)" fill="#221e1f"/><path d="M200.21,168.188c-6.852,8.689-26.711,15.134-35.283,14.411a18.12,18.12,0,0,1-2.012-.293c-.2-.039-.4-.078-.592-.125a330.676,330.676,0,0,1,6.153-69.81,5.106,5.106,0,0,1,.579.091l.006,0c3.436.845,37.611,19.147,39.067,21.427,1.195,1.876.48,23.644-7.919,34.3" transform="translate(73.465 55.231)" fill="#ebd7d7"/><path d="M201.237,111.268c-.046-.339-4.891-2.835-10.624-3.314-6.679-.557-10.159,2.082-11.532,1.85a11.344,11.344,0,0,1,1.222-1.569,12.228,12.228,0,0,0-2.275.355l2-1.912-2.065.423c.19-.039,1.226-1.129,1.536-1.359a14.929,14.929,0,0,1,2.373-1.471,22.026,22.026,0,0,1,13.2-2.052c3.494.614,6.76,2.267,8.456,5.727a11.6,11.6,0,0,0-1.787-.093,12.5,12.5,0,0,1,.887,2.861,11.176,11.176,0,0,1-1.859-.8,3.531,3.531,0,0,1,.464,1.351" transform="translate(83.313 48.684)" fill="#221e1f"/><path d="M208.01,99.006a.994.994,0,0,1-.791-.391c-4.791-6.24-9.895-9.371-15.249-9.327-8.741.081-15.23,8.733-15.295,8.821a1,1,0,1,1-1.6-1.185c.286-.389,7.154-9.539,16.878-9.631,5.989-.026,11.657,3.346,16.849,10.108a1,1,0,0,1-.789,1.6" transform="translate(81.375 39.496)" fill="#221e1f"/><path d="M224.511,168.995c.99-2.7,2.291-5.335,2.692-8.188s-.309-6.095-2.632-7.791c-4.158-3.037-9.965.684-12.9,4.918a33.919,33.919,0,0,0-4.049,30.04c-2.663-7.581-21.054-8.1-24.471-1.385a8.926,8.926,0,0,0,2.967,11.125,6.917,6.917,0,0,0-1.989,12.857c-2.776.42-4.427,3.618-4.168,6.427s1.888,5.275,3.467,7.607c-2.344,2.029-1.881,6.03.133,8.388,12.551,14.694,44.389,11.919,48.71-8.474a33.512,33.512,0,0,0,.535-8.71c-.828-15.768-14.1-30.962-8.294-46.814" transform="translate(84.548 80.039)" fill="#f7be8d"/><path d="M210.32,184.966c7.091,2.773,16.542,9.706,26.821,15.052,8.583,4.462,16.764,7.4,18.091,15.3,2.262,13.482-3.286,19.08-10.111,22.791-7.309,3.973-16.138.679-23.509-3.058-9.954-5.045-16.273-13.667-25.2-20.532Z" transform="translate(94.888 100.782)" fill="#f7be8d"/><path d="M108.752,191.4s-6.979,16.447-8.58,27.3c0,0,34.024,5.411,34.024,5.078s6.878-30.953,6.878-30.953-17.716-10.279-32.321-1.422" transform="translate(34.502 102.559)" fill="#e1a780"/><path d="M139.787,163.328s-19.422.431-34.343,43.424c0,0,13.789-1.23,32.074,11.9Z" transform="translate(37.81 87.205)" fill="#eee"/><path d="M162.375,227.193c-3.662,5.836-10.09,9.584-17,10.974-5.737,5.091-11.638,10.642-17.747,15.381-.7-24.414-2.772-61.357-2.772-61.357,3.51-20.864,1.2-28.3,1.2-28.3a35.348,35.348,0,0,1,5.123-2,34.537,34.537,0,0,1,4.474,24.845c1.562-7.558,18.125-10.077,21.961-4.021a8.951,8.951,0,0,1-1.455,10.98,6.606,6.606,0,0,1,5.608,4.873,7.02,7.02,0,0,1-2.386,7.218c2.553.1,4.4,2.978,4.474,5.7s-1.116,5.258-2.287,7.67c2.339,1.683,2.366,5.564.8,8.043" transform="translate(49.989 86.302)" fill="#d1d1d1"/><path d="M123.96,170.493c-1.086-2.545-2.457-5-3-7.724s-.072-5.887,2-7.659c3.707-3.175,9.356.059,12.352,3.961a33.52,33.52,0,0,1,5.564,28.684c2.039-7.46,19.2-9.065,22.791-2.8a8.779,8.779,0,0,1-2.114,10.891,6.723,6.723,0,0,1,5.486,5.182,6.945,6.945,0,0,1-2.866,7.081c2.622.238,4.353,3.219,4.277,5.939s-1.45,5.193-2.788,7.533c2.309,1.815,2.116,5.693.371,8.085-10.858,14.9-40.784,14.144-46.031-5.234a33.308,33.308,0,0,1-1.017-8.357c-.159-15.233,11.343-30.663,4.978-45.579" transform="translate(46.303 81.241)" fill="#f7be8d"/><path d="M141.115,186.9c-8.59,7.748-34.763,19.071-37.681,24.384s-4.5,11.61-3.076,17.5c2.121,8.775,11.456,15.16,20.4,13.952,3.683-.5,7.12-2.09,10.452-3.738,11.976-5.929,23.457-16.4,34.279-24.243Z" transform="translate(34.286 101.996)" fill="#f7be8d"/><path d="M159.895,53.434c-.976.306-26.515,8.282-41.875,21.024a160.755,160.755,0,0,1,.718-25.463c.067-.858.133-1.7.213-2.526,9.153,3.935,25.776,9.6,40.944,6.966" transform="translate(45.583 13.88)" fill="#776262"/><path d="M240.595,80.137C225.36,67.23,201.207,58.661,201.207,58.661c12.1,2.659,25.37-.02,34.955-3a29.833,29.833,0,0,1,1.767,4.454,59.178,59.178,0,0,1,2.666,20.026" transform="translate(97.897 19.646)" fill="#776262"/><path d="M120.851,102.254a1.7,1.7,0,0,1-1.09-.394l-6.52-5.4a1.712,1.712,0,0,1,2.184-2.638l6.518,5.4a1.712,1.712,0,0,1-1.092,3.032m-13.036-10.79a1.7,1.7,0,0,1-1.09-.394l-6.518-5.4a1.712,1.712,0,1,1,2.182-2.638l6.518,5.4a1.712,1.712,0,0,1-1.092,3.032M94.779,80.673a1.707,1.707,0,0,1-1.09-.392l-3.3-2.734a1.712,1.712,0,0,1,2.184-2.638l3.3,2.733a1.712,1.712,0,0,1-1.092,3.032" transform="translate(27.972 31.478)" fill="#fff"/><path d="M119.684,108.112h-.059l-8.456-.283a1.712,1.712,0,1,1,.114-3.423l8.456.283a1.712,1.712,0,0,1-.055,3.423m-16.913-.566h-.059l-8.456-.285a1.712,1.712,0,1,1,.114-3.423l8.456.285a1.712,1.712,0,0,1-.055,3.423m-16.913-.566c-.02,0-.039,0-.059,0l-5.288-.176a1.713,1.713,0,1,1,.114-3.424l5.288.177a1.713,1.713,0,0,1-.055,3.424" transform="translate(21.127 49.587)" fill="#fff"/><path d="M84.087,145.035a1.712,1.712,0,0,1-.739-3.257l2.117-1.014a1.713,1.713,0,0,1,1.478,3.091l-2.117,1.012a1.716,1.716,0,0,1-.739.168m9.752-4.663a1.713,1.713,0,0,1-.741-3.258l7.633-3.65a1.713,1.713,0,1,1,1.478,3.091l-7.633,3.65a1.709,1.709,0,0,1-.737.168m15.266-7.3a1.713,1.713,0,0,1-.74-3.258l7.634-3.65a1.712,1.712,0,0,1,1.476,3.091l-7.633,3.65a1.7,1.7,0,0,1-.737.168" transform="translate(23.334 63.779)" fill="#fff"/><path d="M235.129,105.107a1.713,1.713,0,0,1-.887-3.178l7.245-4.37a1.712,1.712,0,1,1,1.769,2.933l-7.244,4.37a1.735,1.735,0,0,1-.884.246m14.491-8.741a1.713,1.713,0,0,1-.887-3.18l7.244-4.368a1.713,1.713,0,0,1,1.771,2.933l-7.245,4.37a1.714,1.714,0,0,1-.882.246m14.489-8.741a1.711,1.711,0,0,1-.887-3.177l3.672-2.217a1.712,1.712,0,1,1,1.769,2.933l-3.671,2.217a1.724,1.724,0,0,1-.882.244" transform="translate(118.106 36.166)" fill="#fff"/><path d="M276.695,117.3a1.641,1.641,0,0,1-.2-.011l-5.257-.607a1.713,1.713,0,0,1,.394-3.4l5.257.609a1.712,1.712,0,0,1-.2,3.413m-13.661-1.579c-.065,0-.132,0-.2-.011l-8.406-.973a1.712,1.712,0,0,1,.394-3.4l8.406.972a1.713,1.713,0,0,1-.2,3.414m-16.81-1.945a1.644,1.644,0,0,1-.2-.011l-8.406-.972a1.713,1.713,0,0,1,.394-3.4l8.406.972a1.713,1.713,0,0,1-.2,3.414" transform="translate(119.793 53.356)" fill="#fff"/><path d="M265.013,154.726a1.711,1.711,0,0,1-.959-.295l-1.945-1.315a1.712,1.712,0,0,1,1.919-2.837l1.945,1.315a1.713,1.713,0,0,1-.96,3.131m-8.954-6.056a1.7,1.7,0,0,1-.957-.295l-7.008-4.741a1.712,1.712,0,1,1,1.919-2.837l7.008,4.741a1.713,1.713,0,0,1-.962,3.131m-14.016-9.482a1.711,1.711,0,0,1-.959-.295l-7.008-4.741A1.712,1.712,0,1,1,236,131.316L243,136.057a1.713,1.713,0,0,1-.96,3.131" transform="translate(118.049 66.934)" fill="#fff"/></g></g></svg>