<?xml version="1.0" encoding="UTF-8"?><svg xmlns="http://www.w3.org/2000/svg" xmlns:xlink="http://www.w3.org/1999/xlink" viewBox="0 0 852.8 474.24"><defs><style>.f{fill:#fff;}.g{fill:none;stroke:#fff;stroke-miterlimit:10;stroke-width:1.4px;}.h{fill:url(#d);}.i{fill:url(#e);}.j{fill:#00acb9;}</style><linearGradient id="d" x1="797.09" y1="163.65" x2="427.2" y2="377.2" gradientTransform="matrix(1, 0, 0, 1, 0, 0)" gradientUnits="userSpaceOnUse"><stop offset="0" stop-color="#f3903f"/><stop offset=".25" stop-color="#ed4f78"/><stop offset=".51" stop-color="#e44284"/><stop offset=".61" stop-color="#e03c8b"/><stop offset=".86" stop-color="#c21bb3"/><stop offset="1" stop-color="#b109cb"/></linearGradient><linearGradient id="e" x1="751.31" y1="107.46" x2="529.26" y2="492.06" gradientTransform="matrix(1, 0, 0, 1, 0, 0)" gradientUnits="userSpaceOnUse"><stop offset="0" stop-color="#f3a73f"/><stop offset=".05" stop-color="#f38f3f"/><stop offset=".13" stop-color="#f3763f"/><stop offset=".2" stop-color="#f3673f"/><stop offset=".25" stop-color="#f3623f"/><stop offset=".51" stop-color="#ee2a67"/><stop offset=".63" stop-color="#ed1578"/><stop offset=".74" stop-color="#e01973"/><stop offset=".89" stop-color="#c7226a"/></linearGradient></defs><g id="a"/><g id="b"><g id="c"><g><g><path class="f" d="M0,12.27H47.54c32.21,0,51.38,17.83,51.38,39.68,0,9.39-3.45,17.83-9.78,24.73,6.32,6.71,9.78,15.15,9.78,24.54,0,21.85-19.17,39.68-51.38,39.68H0V12.27Zm47.54,52.53c12.66,0,21.09-4.79,21.09-12.08s-8.43-12.08-21.09-12.08H30.29v24.15h17.25Zm0,47.74c12.66,0,21.09-4.79,21.09-12.08s-8.43-11.89-21.09-11.89H30.29v23.96h17.25Z"/><path class="f" d="M111.95,16.1c0-8.82,7.29-16.1,16.1-16.1s16.1,7.29,16.1,16.1-7.28,16.1-16.1,16.1-16.1-7.09-16.1-16.1Zm.96,28.95h30.29v95.85h-30.29V45.05Z"/><path class="j" d="M256.88,109.65s-13.23,31.44-50.23,31.63c-18.21-.19-37.19-11.31-45.43-29.9-2.68-6.14-4.02-12.85-4.02-19.75,0-27.22,22.04-49.46,49.46-49.46s49.46,22.23,49.46,49.46c0,1.15,.19,1.92-.19,2.68l-64.03,11.5c3.07,4.6,7.86,8.05,14.76,8.05,15.72,0,25.11-12.08,25.11-12.08l25.12,7.86Zm-69.21-26.26l33.93-5.94c-4.6-6.32-12.27-9.58-18.98-8.43-5.75,.96-11.5,5.94-14.19,12.08,0-.38-.38,.38-.77,2.3Z"/><path class="f" d="M360.98,88.76v52.15h-31.06v-51.19c0-11.12-6.33-18.4-15.91-18.4s-15.91,7.48-15.91,18.59v51h-30.29V45.05h30.29v7.86c6.52-5.94,14.96-9.39,23.2-9.39,24.15,0,39.68,19.55,39.68,45.24Z"/><path class="j" d="M472.74,109.65s-13.23,31.44-50.23,31.63c-18.21-.19-37.19-11.31-45.43-29.9-2.68-6.14-4.02-12.85-4.02-19.75,0-27.22,22.04-49.46,49.46-49.46s49.46,22.23,49.46,49.46c0,1.15,.19,1.92-.19,2.68l-64.03,11.5c3.07,4.6,7.86,8.05,14.76,8.05,15.72,0,25.11-12.08,25.11-12.08l25.12,7.86Zm-69.21-26.26l33.93-5.94c-4.6-6.32-12.27-9.58-18.98-8.43-5.75,.96-11.5,5.94-14.19,12.08,0-.38-.38,.38-.77,2.3Z"/><path class="f" d="M476.19,121.74l18.79-16.87s11.69,11.5,27.8,11.5c7.09,0,11.5-1.92,11.5-4.22,0-5.75-55.4-6.33-55.4-38.53,0-18.02,14.96-30.1,40.26-30.1,29.14,0,46.01,20.7,46.01,20.7l-18.79,16.87s-11.89-11.5-27.8-11.5c-7.09,0-11.7,1.92-11.7,4.22,0,5.75,55.59,6.32,55.59,38.53,0,18.02-15.14,30.1-40.45,30.1-29.14,0-45.82-20.7-45.82-20.7Z"/><path class="f" d="M638.18,131.89s-10.74,10.55-27.8,10.55-29.52-7.67-29.52-27.99v-42.36h-9.78v-27.03h9.78V12.27h30.29V45.05h19.75v27.03h-19.75v32.59c0,5.75,2.49,9.59,6.33,9.59,4.79,0,8.05-2.68,8.05-6.9l12.65,24.54Z"/><path class="f" d="M740.94,45.05v95.85h-30.29v-3.45c-6.52,3.26-13.81,4.99-21.47,4.99-27.41,0-49.46-22.24-49.46-49.46s22.04-49.46,49.46-49.46c7.67,0,14.96,1.72,21.47,4.98v-3.45h30.29Zm-31.63,47.93c0-12.65-7.67-21.09-19.17-21.09s-19.17,8.44-19.17,21.09,7.67,21.09,19.17,21.09,19.17-8.44,19.17-21.09Z"/><path class="f" d="M822.21,45.05l-8.05,32.02c-4.03-3.45-8.05-5.75-10.16-5.75-9.59,0-15.91,7.48-15.91,18.59v51h-30.29V45.05h30.29v7.86c6.52-5.94,14.95-9.39,23.39-9.39,3.83,0,7.47,.57,10.73,1.53Z"/></g><path class="j" d="M460.4,205.95h0c-12.49-16.25-27.37-30.39-44.22-42.04-6.8-4.7-16.16-2.99-20.86,3.81-2.28,3.3-3.14,7.28-2.42,11.22,.72,3.94,2.93,7.36,6.23,9.64,3.01,2.08,6.06,4.35,9.1,6.79-27.43,30.9-66.64,48.57-108.01,48.57s-82.33-18.47-109.83-50.67c-2.6-3.04-6.23-4.9-10.22-5.21-3.99-.32-7.87,.94-10.92,3.55-3.04,2.6-4.89,6.23-5.21,10.22-.32,3.99,.94,7.87,3.54,10.92,33.2,38.88,81.55,61.18,132.63,61.18s96.63-21.03,129.71-57.83c2.39,2.72,4.64,5.44,6.7,8.14,2.86,3.72,7.2,5.85,11.89,5.85,3.33,0,6.49-1.07,9.14-3.11,6.55-5.04,7.78-14.47,2.74-21.03Z"/><g><g><g><g><path d="M597.5,326.6c-12.42-.31-22.25-3.55-29.5-9.72-12.11-10.18-18.16-25.1-18.16-44.77,0-3.08,.39-8.1,1.16-15.04,.77-6.94,3.43-15.17,7.98-24.7,4.55-9.52,10.51-17.28,17.87-23.25,7.36-5.98,15.87-9.04,25.51-9.2,9.18,0,16.43,2.39,21.75,7.17,5.63,5.48,8.45,12.84,8.45,22.1,0,4.01-.71,8.58-2.14,13.71-1.43,5.13-3.84,9.89-7.23,14.29-5.78,7.4-13.04,12.84-21.75,16.31-3.55,1.39-7.21,2.16-10.99,2.31-1.54,0-3.05-.08-4.51-.23-2.55-.31-3.82-.81-3.82-1.5v2.2c0,7.48,1.23,13.94,3.7,19.38,2.47,5.44,6.75,8.27,12.84,8.5,12.49-.23,23.99-7.87,34.48-22.91,7.71-11.03,13.96-22.83,18.74-35.4,.54-1.31,1.54-1.97,3.01-1.97,.54,0,1.08,.16,1.62,.46,1.16,.69,1.74,1.66,1.74,2.89,0,.39-.08,.77-.23,1.16-6.33,20.82-13.19,37.56-20.59,50.21-10.87,18.43-24.18,27.77-39.91,28Zm-8.79-67.33c3.39,0,6.79-1.14,10.18-3.41,3.39-2.27,6.36-5.55,8.91-9.83,2.55-4.28,4.24-8.19,5.09-11.74,1.39-4.32,2.08-7.94,2.08-10.87,0-1.39-.25-2.83-.75-4.34-.5-1.51-1.95-2.33-4.34-2.49-3.93,.16-7.64,2.22-11.11,6.19-3.47,3.97-6.52,9.14-9.14,15.5-2.62,6.36-4.59,13.13-5.9,20.3,1.77,.46,3.43,.69,4.97,.69Z"/><path d="M665.41,353.68c-1.39,0-2.74-.08-4.05-.23-6.25-.85-11.34-2.53-15.27-5.03-3.93-2.51-6.98-5.28-9.14-8.33-2.16-3.05-3.82-5.69-4.97-7.93-.15-.39-.31-.69-.46-.93-1.23-2.31-1.85-4.71-1.85-7.17l.12-1.27c.93-5.78,3.78-9.68,8.56-11.68,1.93-.77,3.86-1.16,5.78-1.16,3.01,0,6.02,.97,9.02,2.89,4.78,3.55,10.1,5.32,15.97,5.32,5.32,0,9.22-1.64,11.68-4.92,2.47-3.28,3.93-8.7,4.4-16.26,.15-1.7,.23-3.32,.23-4.86,0-9.1-3.12-16.97-9.37-23.6-3.16-3.32-6.56-6.44-10.18-9.37-3.63-2.93-6.98-6.05-10.07-9.37-6.09-6.55-9.14-14.27-9.14-23.14,0-9.79,3.36-17.51,10.07-23.14,5.63-4.63,12.07-7.87,19.32-9.72,1-.31,1.97-.46,2.89-.46,1.7,0,3.51,.54,5.44,1.62,1.93,1.08,3.39,2.97,4.4,5.67,.31,1.08,.46,2.12,.46,3.12,0,3.47-1.62,6.29-4.86,8.45-6.02,3.63-9.02,7.56-9.02,11.8,0,1.62,1.12,3.32,3.36,5.09,2.24,1.78,5.24,3.74,9.02,5.9,5.47,3.09,11.26,7.1,17.35,12.03,13.34,10.64,20.01,24.41,20.01,41.3,0,2.01-.08,4.13-.23,6.36-1.62,13.58-6.07,24.87-13.36,33.9-7.29,9.02-15.52,15.66-24.7,19.9-7.71,3.47-14.85,5.21-21.4,5.21Z"/><path d="M768.14,323.37c-1.62,0-4.4-.38-8.33-1.16-3.93-.77-8.06-3.62-12.38-8.56-3.86-4.55-6.63-9.68-8.33-15.39-3.24-10.87-4.86-25.84-4.86-44.89,0-13.42,1.12-33.2,3.36-59.35-8.33-1.31-15.21-3.37-20.65-6.19-5.44-2.82-8.16-6.34-8.16-10.59,0-1.31,.73-2.68,2.2-4.11,1.47-1.43,3.97-2.22,7.52-2.37,.54,0,2.78-.17,6.71-.52,3.93-.35,9.02-.71,15.27-1.1,1.54-10.49,4.55-22.94,9.02-37.37,1.08-4.01,2.81-7.67,5.21-10.99,1.31-1.62,2.89-2.89,4.74-3.82,1.39-.62,2.78-.93,4.16-.93l1.85,.12c3.39,.85,5.86,2.93,7.4,6.25,1.54,3.32,2.43,6.83,2.66,10.53,.31,4.71,.46,9.41,.46,14.11,0,5.09-.27,11.8-.81,20.13l10.99-.12h6.59c3.32,.23,5.96,1.43,7.92,3.59,1.97,2.16,2.99,4.28,3.07,6.36-.31,4.86-3.26,8.74-8.85,11.63-5.59,2.89-12.59,4.88-21,5.96-.39,7.17-.97,16.51-1.74,28-1,13.73-1.7,27.46-2.08,41.19-.08,2.7-.23,5.67-.46,8.91-.54,5.09-.81,10.26-.81,15.5s.81,9.64,2.43,13.42c1.08,2.47,2.81,3.7,5.21,3.7,1.85,0,3.62-1.31,5.32-3.93,3.08-4.93,5.49-10.2,7.23-15.79,1.73-5.59,3.26-11.28,4.57-17.06,1.39-6.63,3.12-13.15,5.21-19.55,1.08-3.16,2.62-4.74,4.63-4.74,2.24,.16,3.36,2.08,3.36,5.78l-.23,2.55c-1.78,34.79-10.26,57.19-25.45,67.22-4.16,2.39-8.49,3.59-12.96,3.59Z"/><path d="M832.43,324.75c-6.25,0-11.92-3.39-17.01-10.18-2.62-3.39-4.55-7.17-5.78-11.34-.46-1.62-.69-3.2-.69-4.74,0-2.39,.54-4.74,1.62-7.06,2.55-4.24,6.21-7.25,10.99-9.02,3.16-1.54,6.4-2.31,9.72-2.31,6.71,0,12.3,3.55,16.78,10.64,3.01,4.16,4.59,8.37,4.74,12.61,0,4.94-1.99,9.64-5.96,14.11-3.97,4.47-8.77,6.9-14.4,7.29Z"/></g><g><path d="M597.5,326.6c-12.42-.31-22.25-3.55-29.5-9.72-12.11-10.18-18.16-25.1-18.16-44.77,0-3.08,.39-8.1,1.16-15.04,.77-6.94,3.43-15.17,7.98-24.7,4.55-9.52,10.51-17.28,17.87-23.25,7.36-5.98,15.87-9.04,25.51-9.2,9.18,0,16.43,2.39,21.75,7.17,5.63,5.48,8.45,12.84,8.45,22.1,0,4.01-.71,8.58-2.14,13.71-1.43,5.13-3.84,9.89-7.23,14.29-5.78,7.4-13.04,12.84-21.75,16.31-3.55,1.39-7.21,2.16-10.99,2.31-1.54,0-3.05-.08-4.51-.23-2.55-.31-3.82-.81-3.82-1.5v2.2c0,7.48,1.23,13.94,3.7,19.38,2.47,5.44,6.75,8.27,12.84,8.5,12.49-.23,23.99-7.87,34.48-22.91,7.71-11.03,13.96-22.83,18.74-35.4,.54-1.31,1.54-1.97,3.01-1.97,.54,0,1.08,.16,1.62,.46,1.16,.69,1.74,1.66,1.74,2.89,0,.39-.08,.77-.23,1.16-6.33,20.82-13.19,37.56-20.59,50.21-10.87,18.43-24.18,27.77-39.91,28Zm-8.79-67.33c3.39,0,6.79-1.14,10.18-3.41,3.39-2.27,6.36-5.55,8.91-9.83,2.55-4.28,4.24-8.19,5.09-11.74,1.39-4.32,2.08-7.94,2.08-10.87,0-1.39-.25-2.83-.75-4.34-.5-1.51-1.95-2.33-4.34-2.49-3.93,.16-7.64,2.22-11.11,6.19-3.47,3.97-6.52,9.14-9.14,15.5-2.62,6.36-4.59,13.13-5.9,20.3,1.77,.46,3.43,.69,4.97,.69Z"/><path d="M665.41,353.68c-1.39,0-2.74-.08-4.05-.23-6.25-.85-11.34-2.53-15.27-5.03-3.93-2.51-6.98-5.28-9.14-8.33-2.16-3.05-3.82-5.69-4.97-7.93-.15-.39-.31-.69-.46-.93-1.23-2.31-1.85-4.71-1.85-7.17l.12-1.27c.93-5.78,3.78-9.68,8.56-11.68,1.93-.77,3.86-1.16,5.78-1.16,3.01,0,6.02,.97,9.02,2.89,4.78,3.55,10.1,5.32,15.97,5.32,5.32,0,9.22-1.64,11.68-4.92,2.47-3.28,3.93-8.7,4.4-16.26,.15-1.7,.23-3.32,.23-4.86,0-9.1-3.12-16.97-9.37-23.6-3.16-3.32-6.56-6.44-10.18-9.37-3.63-2.93-6.98-6.05-10.07-9.37-6.09-6.55-9.14-14.27-9.14-23.14,0-9.79,3.36-17.51,10.07-23.14,5.63-4.63,12.07-7.87,19.32-9.72,1-.31,1.97-.46,2.89-.46,1.7,0,3.51,.54,5.44,1.62,1.93,1.08,3.39,2.97,4.4,5.67,.31,1.08,.46,2.12,.46,3.12,0,3.47-1.62,6.29-4.86,8.45-6.02,3.63-9.02,7.56-9.02,11.8,0,1.62,1.12,3.32,3.36,5.09,2.24,1.78,5.24,3.74,9.02,5.9,5.47,3.09,11.26,7.1,17.35,12.03,13.34,10.64,20.01,24.41,20.01,41.3,0,2.01-.08,4.13-.23,6.36-1.62,13.58-6.07,24.87-13.36,33.9-7.29,9.02-15.52,15.66-24.7,19.9-7.71,3.47-14.85,5.21-21.4,5.21Z"/><path d="M768.14,323.37c-1.62,0-4.4-.38-8.33-1.16-3.93-.77-8.06-3.62-12.38-8.56-3.86-4.55-6.63-9.68-8.33-15.39-3.24-10.87-4.86-25.84-4.86-44.89,0-13.42,1.12-33.2,3.36-59.35-8.33-1.31-15.21-3.37-20.65-6.19-5.44-2.82-8.16-6.34-8.16-10.59,0-1.31,.73-2.68,2.2-4.11,1.47-1.43,3.97-2.22,7.52-2.37,.54,0,2.78-.17,6.71-.52,3.93-.35,9.02-.71,15.27-1.1,1.54-10.49,4.55-22.94,9.02-37.37,1.08-4.01,2.81-7.67,5.21-10.99,1.31-1.62,2.89-2.89,4.74-3.82,1.39-.62,2.78-.93,4.16-.93l1.85,.12c3.39,.85,5.86,2.93,7.4,6.25,1.54,3.32,2.43,6.83,2.66,10.53,.31,4.71,.46,9.41,.46,14.11,0,5.09-.27,11.8-.81,20.13l10.99-.12h6.59c3.32,.23,5.96,1.43,7.92,3.59,1.97,2.16,2.99,4.28,3.07,6.36-.31,4.86-3.26,8.74-8.85,11.63-5.59,2.89-12.59,4.88-21,5.96-.39,7.17-.97,16.51-1.74,28-1,13.73-1.7,27.46-2.08,41.19-.08,2.7-.23,5.67-.46,8.91-.54,5.09-.81,10.26-.81,15.5s.81,9.64,2.43,13.42c1.08,2.47,2.81,3.7,5.21,3.7,1.85,0,3.62-1.31,5.32-3.93,3.08-4.93,5.49-10.2,7.23-15.79,1.73-5.59,3.26-11.28,4.57-17.06,1.39-6.63,3.12-13.15,5.21-19.55,1.08-3.16,2.62-4.74,4.63-4.74,2.24,.16,3.36,2.08,3.36,5.78l-.23,2.55c-1.78,34.79-10.26,57.19-25.45,67.22-4.16,2.39-8.49,3.59-12.96,3.59Z"/><path d="M832.43,324.75c-6.25,0-11.92-3.39-17.01-10.18-2.62-3.39-4.55-7.17-5.78-11.34-.46-1.62-.69-3.2-.69-4.74,0-2.39,.54-4.74,1.62-7.06,2.55-4.24,6.21-7.25,10.99-9.02,3.16-1.54,6.4-2.31,9.72-2.31,6.71,0,12.3,3.55,16.78,10.64,3.01,4.16,4.59,8.37,4.74,12.61,0,4.94-1.99,9.64-5.96,14.11-3.97,4.47-8.77,6.9-14.4,7.29Z"/></g></g><path d="M580.11,254.39c-12.58,23.69-43.44,29.14-71.19,29.59l-6.37,34.35c14.15,41.45,26.01,92.55,26.24,116.15,.1,9.96-1.03,23.96-11.96,30.51-3.99,2.39-8.16,3.94-12.35,4.64-7.93,1.33-15.89-.38-22.7-5.11-20.46-14.21-26.45-50.54-16.85-102.3l7.87-42.46c-6.44-18.27-12.72-32.75-17.18-38.09-9.72-6.41-7.54-15.63-6.98-17.48,3.63-12.02,14.37-11.31,29.23-10.32,2.02,.13,4.4,.29,7.06,.44l14.42-77.82c6.07-32.79,24.1-42.69,38.93-41.04,15.68,1.76,27.44,16.45,26.77,33.47-.32,7.99-7.05,14.23-15.05,13.91-8-.31-14.22-7.05-13.91-15.05,.07-1.7-.52-2.8-.97-3.31-1.48,1.11-5.12,5.62-7.28,17.3l-13.51,72.92c17.59-.83,34.99-4.16,40.17-13.91,3.75-7.07,12.53-9.75,19.59-6,7.07,3.75,9.75,12.53,6,19.6Zm-88.92,127.2c-5.3,40.3,3.03,56.28,7.13,59.13,.29,.21,.64,.45,1.31,.37,2.03-9.61-1.95-33.21-8.44-59.49Z"/></g><g><g><g><path class="h" d="M597.5,326.6c-12.42-.31-22.25-3.55-29.5-9.72-12.11-10.18-18.16-25.1-18.16-44.77,0-3.08,.39-8.1,1.16-15.04,.77-6.94,3.43-15.17,7.98-24.7,4.55-9.52,10.51-17.28,17.87-23.25,7.36-5.98,15.87-9.04,25.51-9.2,9.18,0,16.43,2.39,21.75,7.17,5.63,5.48,8.45,12.84,8.45,22.1,0,4.01-.71,8.58-2.14,13.71-1.43,5.13-3.84,9.89-7.23,14.29-5.78,7.4-13.04,12.84-21.75,16.31-3.55,1.39-7.21,2.16-10.99,2.31-1.54,0-3.05-.08-4.51-.23-2.55-.31-3.82-.81-3.82-1.5v2.2c0,7.48,1.23,13.94,3.7,19.38,2.47,5.44,6.75,8.27,12.84,8.5,12.49-.23,23.99-7.87,34.48-22.91,7.71-11.03,13.96-22.83,18.74-35.4,.54-1.31,1.54-1.97,3.01-1.97,.54,0,1.08,.16,1.62,.46,1.16,.69,1.74,1.66,1.74,2.89,0,.39-.08,.77-.23,1.16-6.33,20.82-13.19,37.56-20.59,50.21-10.87,18.43-24.18,27.77-39.91,28Zm-8.79-67.33c3.39,0,6.79-1.14,10.18-3.41,3.39-2.27,6.36-5.55,8.91-9.83,2.55-4.28,4.24-8.19,5.09-11.74,1.39-4.32,2.08-7.94,2.08-10.87,0-1.39-.25-2.83-.75-4.34-.5-1.51-1.95-2.33-4.34-2.49-3.93,.16-7.64,2.22-11.11,6.19-3.47,3.97-6.52,9.14-9.14,15.5-2.62,6.36-4.59,13.13-5.9,20.3,1.77,.46,3.43,.69,4.97,.69Z"/><path class="h" d="M665.41,353.68c-1.39,0-2.74-.08-4.05-.23-6.25-.85-11.34-2.53-15.27-5.03-3.93-2.51-6.98-5.28-9.14-8.33-2.16-3.05-3.82-5.69-4.97-7.93-.15-.39-.31-.69-.46-.93-1.23-2.31-1.85-4.71-1.85-7.17l.12-1.27c.93-5.78,3.78-9.68,8.56-11.68,1.93-.77,3.86-1.16,5.78-1.16,3.01,0,6.02,.97,9.02,2.89,4.78,3.55,10.1,5.32,15.97,5.32,5.32,0,9.22-1.64,11.68-4.92,2.47-3.28,3.93-8.7,4.4-16.26,.15-1.7,.23-3.32,.23-4.86,0-9.1-3.12-16.97-9.37-23.6-3.16-3.32-6.56-6.44-10.18-9.37-3.63-2.93-6.98-6.05-10.07-9.37-6.09-6.55-9.14-14.27-9.14-23.14,0-9.79,3.36-17.51,10.07-23.14,5.63-4.63,12.07-7.87,19.32-9.72,1-.31,1.97-.46,2.89-.46,1.7,0,3.51,.54,5.44,1.62,1.93,1.08,3.39,2.97,4.4,5.67,.31,1.08,.46,2.12,.46,3.12,0,3.47-1.62,6.29-4.86,8.45-6.02,3.63-9.02,7.56-9.02,11.8,0,1.62,1.12,3.32,3.36,5.09,2.24,1.78,5.24,3.74,9.02,5.9,5.47,3.09,11.26,7.1,17.35,12.03,13.34,10.64,20.01,24.41,20.01,41.3,0,2.01-.08,4.13-.23,6.36-1.62,13.58-6.07,24.87-13.36,33.9-7.29,9.02-15.52,15.66-24.7,19.9-7.71,3.47-14.85,5.21-21.4,5.21Z"/><path class="h" d="M768.14,323.37c-1.62,0-4.4-.38-8.33-1.16-3.93-.77-8.06-3.62-12.38-8.56-3.86-4.55-6.63-9.68-8.33-15.39-3.24-10.87-4.86-25.84-4.86-44.89,0-13.42,1.12-33.2,3.36-59.35-8.33-1.31-15.21-3.37-20.65-6.19-5.44-2.82-8.16-6.34-8.16-10.59,0-1.31,.73-2.68,2.2-4.11,1.47-1.43,3.97-2.22,7.52-2.37,.54,0,2.78-.17,6.71-.52,3.93-.35,9.02-.71,15.27-1.1,1.54-10.49,4.55-22.94,9.02-37.37,1.08-4.01,2.81-7.67,5.21-10.99,1.31-1.62,2.89-2.89,4.74-3.82,1.39-.62,2.78-.93,4.16-.93l1.85,.12c3.39,.85,5.86,2.93,7.4,6.25,1.54,3.32,2.43,6.83,2.66,10.53,.31,4.71,.46,9.41,.46,14.11,0,5.09-.27,11.8-.81,20.13l10.99-.12h6.59c3.32,.23,5.96,1.43,7.92,3.59,1.97,2.16,2.99,4.28,3.07,6.36-.31,4.86-3.26,8.74-8.85,11.63-5.59,2.89-12.59,4.88-21,5.96-.39,7.17-.97,16.51-1.74,28-1,13.73-1.7,27.46-2.08,41.19-.08,2.7-.23,5.67-.46,8.91-.54,5.09-.81,10.26-.81,15.5s.81,9.64,2.43,13.42c1.08,2.47,2.81,3.7,5.21,3.7,1.85,0,3.62-1.31,5.32-3.93,3.08-4.93,5.49-10.2,7.23-15.79,1.73-5.59,3.26-11.28,4.57-17.06,1.39-6.63,3.12-13.15,5.21-19.55,1.08-3.16,2.62-4.74,4.63-4.74,2.24,.16,3.36,2.08,3.36,5.78l-.23,2.55c-1.78,34.79-10.26,57.19-25.45,67.22-4.16,2.39-8.49,3.59-12.96,3.59Z"/><path class="h" d="M832.43,324.75c-6.25,0-11.92-3.39-17.01-10.18-2.62-3.39-4.55-7.17-5.78-11.34-.46-1.62-.69-3.2-.69-4.74,0-2.39,.54-4.74,1.62-7.06,2.55-4.24,6.21-7.25,10.99-9.02,3.16-1.54,6.4-2.31,9.72-2.31,6.71,0,12.3,3.55,16.78,10.64,3.01,4.16,4.59,8.37,4.74,12.61,0,4.94-1.99,9.64-5.96,14.11-3.97,4.47-8.77,6.9-14.4,7.29Z"/></g><g><path class="h" d="M597.5,326.6c-12.42-.31-22.25-3.55-29.5-9.72-12.11-10.18-18.16-25.1-18.16-44.77,0-3.08,.39-8.1,1.16-15.04,.77-6.94,3.43-15.17,7.98-24.7,4.55-9.52,10.51-17.28,17.87-23.25,7.36-5.98,15.87-9.04,25.51-9.2,9.18,0,16.43,2.39,21.75,7.17,5.63,5.48,8.45,12.84,8.45,22.1,0,4.01-.71,8.58-2.14,13.71-1.43,5.13-3.84,9.89-7.23,14.29-5.78,7.4-13.04,12.84-21.75,16.31-3.55,1.39-7.21,2.16-10.99,2.31-1.54,0-3.05-.08-4.51-.23-2.55-.31-3.82-.81-3.82-1.5v2.2c0,7.48,1.23,13.94,3.7,19.38,2.47,5.44,6.75,8.27,12.84,8.5,12.49-.23,23.99-7.87,34.48-22.91,7.71-11.03,13.96-22.83,18.74-35.4,.54-1.31,1.54-1.97,3.01-1.97,.54,0,1.08,.16,1.62,.46,1.16,.69,1.74,1.66,1.74,2.89,0,.39-.08,.77-.23,1.16-6.33,20.82-13.19,37.56-20.59,50.21-10.87,18.43-24.18,27.77-39.91,28Zm-8.79-67.33c3.39,0,6.79-1.14,10.18-3.41,3.39-2.27,6.36-5.55,8.91-9.83,2.55-4.28,4.24-8.19,5.09-11.74,1.39-4.32,2.08-7.94,2.08-10.87,0-1.39-.25-2.83-.75-4.34-.5-1.51-1.95-2.33-4.34-2.49-3.93,.16-7.64,2.22-11.11,6.19-3.47,3.97-6.52,9.14-9.14,15.5-2.62,6.36-4.59,13.13-5.9,20.3,1.77,.46,3.43,.69,4.97,.69Z"/><path class="h" d="M665.41,353.68c-1.39,0-2.74-.08-4.05-.23-6.25-.85-11.34-2.53-15.27-5.03-3.93-2.51-6.98-5.28-9.14-8.33-2.16-3.05-3.82-5.69-4.97-7.93-.15-.39-.31-.69-.46-.93-1.23-2.31-1.85-4.71-1.85-7.17l.12-1.27c.93-5.78,3.78-9.68,8.56-11.68,1.93-.77,3.86-1.16,5.78-1.16,3.01,0,6.02,.97,9.02,2.89,4.78,3.55,10.1,5.32,15.97,5.32,5.32,0,9.22-1.64,11.68-4.92,2.47-3.28,3.93-8.7,4.4-16.26,.15-1.7,.23-3.32,.23-4.86,0-9.1-3.12-16.97-9.37-23.6-3.16-3.32-6.56-6.44-10.18-9.37-3.63-2.93-6.98-6.05-10.07-9.37-6.09-6.55-9.14-14.27-9.14-23.14,0-9.79,3.36-17.51,10.07-23.14,5.63-4.63,12.07-7.87,19.32-9.72,1-.31,1.97-.46,2.89-.46,1.7,0,3.51,.54,5.44,1.62,1.93,1.08,3.39,2.97,4.4,5.67,.31,1.08,.46,2.12,.46,3.12,0,3.47-1.62,6.29-4.86,8.45-6.02,3.63-9.02,7.56-9.02,11.8,0,1.62,1.12,3.32,3.36,5.09,2.24,1.78,5.24,3.74,9.02,5.9,5.47,3.09,11.26,7.1,17.35,12.03,13.34,10.64,20.01,24.41,20.01,41.3,0,2.01-.08,4.13-.23,6.36-1.62,13.58-6.07,24.87-13.36,33.9-7.29,9.02-15.52,15.66-24.7,19.9-7.71,3.47-14.85,5.21-21.4,5.21Z"/><path class="h" d="M768.14,323.37c-1.62,0-4.4-.38-8.33-1.16-3.93-.77-8.06-3.62-12.38-8.56-3.86-4.55-6.63-9.68-8.33-15.39-3.24-10.87-4.86-25.84-4.86-44.89,0-13.42,1.12-33.2,3.36-59.35-8.33-1.31-15.21-3.37-20.65-6.19-5.44-2.82-8.16-6.34-8.16-10.59,0-1.31,.73-2.68,2.2-4.11,1.47-1.43,3.97-2.22,7.52-2.37,.54,0,2.78-.17,6.71-.52,3.93-.35,9.02-.71,15.27-1.1,1.54-10.49,4.55-22.94,9.02-37.37,1.08-4.01,2.81-7.67,5.21-10.99,1.31-1.62,2.89-2.89,4.74-3.82,1.39-.62,2.78-.93,4.16-.93l1.85,.12c3.39,.85,5.86,2.93,7.4,6.25,1.54,3.32,2.43,6.83,2.66,10.53,.31,4.71,.46,9.41,.46,14.11,0,5.09-.27,11.8-.81,20.13l10.99-.12h6.59c3.32,.23,5.96,1.43,7.92,3.59,1.97,2.16,2.99,4.28,3.07,6.36-.31,4.86-3.26,8.74-8.85,11.63-5.59,2.89-12.59,4.88-21,5.96-.39,7.17-.97,16.51-1.74,28-1,13.73-1.7,27.46-2.08,41.19-.08,2.7-.23,5.67-.46,8.91-.54,5.09-.81,10.26-.81,15.5s.81,9.64,2.43,13.42c1.08,2.47,2.81,3.7,5.21,3.7,1.85,0,3.62-1.31,5.32-3.93,3.08-4.93,5.49-10.2,7.23-15.79,1.73-5.59,3.26-11.28,4.57-17.06,1.39-6.63,3.12-13.15,5.21-19.55,1.08-3.16,2.62-4.74,4.63-4.74,2.24,.16,3.36,2.08,3.36,5.78l-.23,2.55c-1.78,34.79-10.26,57.19-25.45,67.22-4.16,2.39-8.49,3.59-12.96,3.59Z"/><path class="h" d="M832.43,324.75c-6.25,0-11.92-3.39-17.01-10.18-2.62-3.39-4.55-7.17-5.78-11.34-.46-1.62-.69-3.2-.69-4.74,0-2.39,.54-4.74,1.62-7.06,2.55-4.24,6.21-7.25,10.99-9.02,3.16-1.54,6.4-2.31,9.72-2.31,6.71,0,12.3,3.55,16.78,10.64,3.01,4.16,4.59,8.37,4.74,12.61,0,4.94-1.99,9.64-5.96,14.11-3.97,4.47-8.77,6.9-14.4,7.29Z"/></g><g><path class="h" d="M597.5,326.6c-12.42-.31-22.25-3.55-29.5-9.72-12.11-10.18-18.16-25.1-18.16-44.77,0-3.08,.39-8.1,1.16-15.04,.77-6.94,3.43-15.17,7.98-24.7,4.55-9.52,10.51-17.28,17.87-23.25,7.36-5.98,15.87-9.04,25.51-9.2,9.18,0,16.43,2.39,21.75,7.17,5.63,5.48,8.45,12.84,8.45,22.1,0,4.01-.71,8.58-2.14,13.71-1.43,5.13-3.84,9.89-7.23,14.29-5.78,7.4-13.04,12.84-21.75,16.31-3.55,1.39-7.21,2.16-10.99,2.31-1.54,0-3.05-.08-4.51-.23-2.55-.31-3.82-.81-3.82-1.5v2.2c0,7.48,1.23,13.94,3.7,19.38,2.47,5.44,6.75,8.27,12.84,8.5,12.49-.23,23.99-7.87,34.48-22.91,7.71-11.03,13.96-22.83,18.74-35.4,.54-1.31,1.54-1.97,3.01-1.97,.54,0,1.08,.16,1.62,.46,1.16,.69,1.74,1.66,1.74,2.89,0,.39-.08,.77-.23,1.16-6.33,20.82-13.19,37.56-20.59,50.21-10.87,18.43-24.18,27.77-39.91,28Zm-8.79-67.33c3.39,0,6.79-1.14,10.18-3.41,3.39-2.27,6.36-5.55,8.91-9.83,2.55-4.28,4.24-8.19,5.09-11.74,1.39-4.32,2.08-7.94,2.08-10.87,0-1.39-.25-2.83-.75-4.34-.5-1.51-1.95-2.33-4.34-2.49-3.93,.16-7.64,2.22-11.11,6.19-3.47,3.97-6.52,9.14-9.14,15.5-2.62,6.36-4.59,13.13-5.9,20.3,1.77,.46,3.43,.69,4.97,.69Z"/><path class="h" d="M665.41,353.68c-1.39,0-2.74-.08-4.05-.23-6.25-.85-11.34-2.53-15.27-5.03-3.93-2.51-6.98-5.28-9.14-8.33-2.16-3.05-3.82-5.69-4.97-7.93-.15-.39-.31-.69-.46-.93-1.23-2.31-1.85-4.71-1.85-7.17l.12-1.27c.93-5.78,3.78-9.68,8.56-11.68,1.93-.77,3.86-1.16,5.78-1.16,3.01,0,6.02,.97,9.02,2.89,4.78,3.55,10.1,5.32,15.97,5.32,5.32,0,9.22-1.64,11.68-4.92,2.47-3.28,3.93-8.7,4.4-16.26,.15-1.7,.23-3.32,.23-4.86,0-9.1-3.12-16.97-9.37-23.6-3.16-3.32-6.56-6.44-10.18-9.37-3.63-2.93-6.98-6.05-10.07-9.37-6.09-6.55-9.14-14.27-9.14-23.14,0-9.79,3.36-17.51,10.07-23.14,5.63-4.63,12.07-7.87,19.32-9.72,1-.31,1.97-.46,2.89-.46,1.7,0,3.51,.54,5.44,1.62,1.93,1.08,3.39,2.97,4.4,5.67,.31,1.08,.46,2.12,.46,3.12,0,3.47-1.62,6.29-4.86,8.45-6.02,3.63-9.02,7.56-9.02,11.8,0,1.62,1.12,3.32,3.36,5.09,2.24,1.78,5.24,3.74,9.02,5.9,5.47,3.09,11.26,7.1,17.35,12.03,13.34,10.64,20.01,24.41,20.01,41.3,0,2.01-.08,4.13-.23,6.36-1.62,13.58-6.07,24.87-13.36,33.9-7.29,9.02-15.52,15.66-24.7,19.9-7.71,3.47-14.85,5.21-21.4,5.21Z"/><path class="h" d="M768.14,323.37c-1.62,0-4.4-.38-8.33-1.16-3.93-.77-8.06-3.62-12.38-8.56-3.86-4.55-6.63-9.68-8.33-15.39-3.24-10.87-4.86-25.84-4.86-44.89,0-13.42,1.12-33.2,3.36-59.35-8.33-1.31-15.21-3.37-20.65-6.19-5.44-2.82-8.16-6.34-8.16-10.59,0-1.31,.73-2.68,2.2-4.11,1.47-1.43,3.97-2.22,7.52-2.37,.54,0,2.78-.17,6.71-.52,3.93-.35,9.02-.71,15.27-1.1,1.54-10.49,4.55-22.94,9.02-37.37,1.08-4.01,2.81-7.67,5.21-10.99,1.31-1.62,2.89-2.89,4.74-3.82,1.39-.62,2.78-.93,4.16-.93l1.85,.12c3.39,.85,5.86,2.93,7.4,6.25,1.54,3.32,2.43,6.83,2.66,10.53,.31,4.71,.46,9.41,.46,14.11,0,5.09-.27,11.8-.81,20.13l10.99-.12h6.59c3.32,.23,5.96,1.43,7.92,3.59,1.97,2.16,2.99,4.28,3.07,6.36-.31,4.86-3.26,8.74-8.85,11.63-5.59,2.89-12.59,4.88-21,5.96-.39,7.17-.97,16.51-1.74,28-1,13.73-1.7,27.46-2.08,41.19-.08,2.7-.23,5.67-.46,8.91-.54,5.09-.81,10.26-.81,15.5s.81,9.64,2.43,13.42c1.08,2.47,2.81,3.7,5.21,3.7,1.85,0,3.62-1.31,5.32-3.93,3.08-4.93,5.49-10.2,7.23-15.79,1.73-5.59,3.26-11.28,4.57-17.06,1.39-6.63,3.12-13.15,5.21-19.55,1.08-3.16,2.62-4.74,4.63-4.74,2.24,.16,3.36,2.08,3.36,5.78l-.23,2.55c-1.78,34.79-10.26,57.19-25.45,67.22-4.16,2.39-8.49,3.59-12.96,3.59Z"/><path class="h" d="M832.43,324.75c-6.25,0-11.92-3.39-17.01-10.18-2.62-3.39-4.55-7.17-5.78-11.34-.46-1.62-.69-3.2-.69-4.74,0-2.39,.54-4.74,1.62-7.06,2.55-4.24,6.21-7.25,10.99-9.02,3.16-1.54,6.4-2.31,9.72-2.31,6.71,0,12.3,3.55,16.78,10.64,3.01,4.16,4.59,8.37,4.74,12.61,0,4.94-1.99,9.64-5.96,14.11-3.97,4.47-8.77,6.9-14.4,7.29Z"/></g></g><g><path class="h" d="M580.11,254.39c-12.58,23.69-43.44,29.14-71.19,29.59l-6.37,34.35c14.15,41.45,26.01,92.55,26.24,116.15,.1,9.96-1.03,23.96-11.96,30.51-3.99,2.39-8.16,3.94-12.35,4.64-7.93,1.33-15.89-.38-22.7-5.11-20.46-14.21-26.45-50.54-16.85-102.3l7.87-42.46c-6.44-18.27-12.72-32.75-17.18-38.09-9.72-6.41-7.54-15.63-6.98-17.48,3.63-12.02,14.37-11.31,29.23-10.32,2.02,.13,4.4,.29,7.06,.44l14.42-77.82c6.07-32.79,24.1-42.69,38.93-41.04,15.68,1.76,27.44,16.45,26.77,33.47-.32,7.99-7.05,14.23-15.05,13.91-8-.31-14.22-7.05-13.91-15.05,.07-1.7-.52-2.8-.97-3.31-1.48,1.11-5.12,5.62-7.28,17.3l-13.51,72.92c17.59-.83,34.99-4.16,40.17-13.91,3.75-7.07,12.53-9.75,19.59-6,7.07,3.75,9.75,12.53,6,19.6Zm-88.92,127.2c-5.3,40.3,3.03,56.28,7.13,59.13,.29,.21,.64,.45,1.31,.37,2.03-9.61-1.95-33.21-8.44-59.49Z"/><path class="h" d="M580.11,254.39c-12.58,23.69-43.44,29.14-71.19,29.59l-6.37,34.35c14.15,41.45,26.01,92.55,26.24,116.15,.1,9.96-1.03,23.96-11.96,30.51-3.99,2.39-8.16,3.94-12.35,4.64-7.93,1.33-15.89-.38-22.7-5.11-20.46-14.21-26.45-50.54-16.85-102.3l7.87-42.46c-6.44-18.27-12.72-32.75-17.18-38.09-9.72-6.41-7.54-15.63-6.98-17.48,3.63-12.02,14.37-11.31,29.23-10.32,2.02,.13,4.4,.29,7.06,.44l14.42-77.82c6.07-32.79,24.1-42.69,38.93-41.04,15.68,1.76,27.44,16.45,26.77,33.47-.32,7.99-7.05,14.23-15.05,13.91-8-.31-14.22-7.05-13.91-15.05,.07-1.7-.52-2.8-.97-3.31-1.48,1.11-5.12,5.62-7.28,17.3l-13.51,72.92c17.59-.83,34.99-4.16,40.17-13.91,3.75-7.07,12.53-9.75,19.59-6,7.07,3.75,9.75,12.53,6,19.6Zm-88.92,127.2c-5.3,40.3,3.03,56.28,7.13,59.13,.29,.21,.64,.45,1.31,.37,2.03-9.61-1.95-33.21-8.44-59.49Z"/></g></g></g><g><g><g><g><path d="M597.5,326.6c-12.42-.31-22.25-3.55-29.5-9.72-12.11-10.18-18.16-25.1-18.16-44.77,0-3.08,.39-8.1,1.16-15.04,.77-6.94,3.43-15.17,7.98-24.7,4.55-9.52,10.51-17.28,17.87-23.25,7.36-5.98,15.87-9.04,25.51-9.2,9.18,0,16.43,2.39,21.75,7.17,5.63,5.48,8.45,12.84,8.45,22.1,0,4.01-.71,8.58-2.14,13.71-1.43,5.13-3.84,9.89-7.23,14.29-5.78,7.4-13.04,12.84-21.75,16.31-3.55,1.39-7.21,2.16-10.99,2.31-1.54,0-3.05-.08-4.51-.23-2.55-.31-3.82-.81-3.82-1.5v2.2c0,7.48,1.23,13.94,3.7,19.38,2.47,5.44,6.75,8.27,12.84,8.5,12.49-.23,23.99-7.87,34.48-22.91,7.71-11.03,13.96-22.83,18.74-35.4,.54-1.31,1.54-1.97,3.01-1.97,.54,0,1.08,.16,1.62,.46,1.16,.69,1.74,1.66,1.74,2.89,0,.39-.08,.77-.23,1.16-6.33,20.82-13.19,37.56-20.59,50.21-10.87,18.43-24.18,27.77-39.91,28Zm-8.79-67.33c3.39,0,6.79-1.14,10.18-3.41,3.39-2.27,6.36-5.55,8.91-9.83,2.55-4.28,4.24-8.19,5.09-11.74,1.39-4.32,2.08-7.94,2.08-10.87,0-1.39-.25-2.83-.75-4.34-.5-1.51-1.95-2.33-4.34-2.49-3.93,.16-7.64,2.22-11.11,6.19-3.47,3.97-6.52,9.14-9.14,15.5-2.62,6.36-4.59,13.13-5.9,20.3,1.77,.46,3.43,.69,4.97,.69Z"/><path d="M665.41,353.68c-1.39,0-2.74-.08-4.05-.23-6.25-.85-11.34-2.53-15.27-5.03-3.93-2.51-6.98-5.28-9.14-8.33-2.16-3.05-3.82-5.69-4.97-7.93-.15-.39-.31-.69-.46-.93-1.23-2.31-1.85-4.71-1.85-7.17l.12-1.27c.93-5.78,3.78-9.68,8.56-11.68,1.93-.77,3.86-1.16,5.78-1.16,3.01,0,6.02,.97,9.02,2.89,4.78,3.55,10.1,5.32,15.97,5.32,5.32,0,9.22-1.64,11.68-4.92,2.47-3.28,3.93-8.7,4.4-16.26,.15-1.7,.23-3.32,.23-4.86,0-9.1-3.12-16.97-9.37-23.6-3.16-3.32-6.56-6.44-10.18-9.37-3.63-2.93-6.98-6.05-10.07-9.37-6.09-6.55-9.14-14.27-9.14-23.14,0-9.79,3.36-17.51,10.07-23.14,5.63-4.63,12.07-7.87,19.32-9.72,1-.31,1.97-.46,2.89-.46,1.7,0,3.51,.54,5.44,1.62,1.93,1.08,3.39,2.97,4.4,5.67,.31,1.08,.46,2.12,.46,3.12,0,3.47-1.62,6.29-4.86,8.45-6.02,3.63-9.02,7.56-9.02,11.8,0,1.62,1.12,3.32,3.36,5.09,2.24,1.78,5.24,3.74,9.02,5.9,5.47,3.09,11.26,7.1,17.35,12.03,13.34,10.64,20.01,24.41,20.01,41.3,0,2.01-.08,4.13-.23,6.36-1.62,13.58-6.07,24.87-13.36,33.9-7.29,9.02-15.52,15.66-24.7,19.9-7.71,3.47-14.85,5.21-21.4,5.21Z"/><path d="M768.14,323.37c-1.62,0-4.4-.38-8.33-1.16-3.93-.77-8.06-3.62-12.38-8.56-3.86-4.55-6.63-9.68-8.33-15.39-3.24-10.87-4.86-25.84-4.86-44.89,0-13.42,1.12-33.2,3.36-59.35-8.33-1.31-15.21-3.37-20.65-6.19-5.44-2.82-8.16-6.34-8.16-10.59,0-1.31,.73-2.68,2.2-4.11,1.47-1.43,3.97-2.22,7.52-2.37,.54,0,2.78-.17,6.71-.52,3.93-.35,9.02-.71,15.27-1.1,1.54-10.49,4.55-22.94,9.02-37.37,1.08-4.01,2.81-7.67,5.21-10.99,1.31-1.62,2.89-2.89,4.74-3.82,1.39-.62,2.78-.93,4.16-.93l1.85,.12c3.39,.85,5.86,2.93,7.4,6.25,1.54,3.32,2.43,6.83,2.66,10.53,.31,4.71,.46,9.41,.46,14.11,0,5.09-.27,11.8-.81,20.13l10.99-.12h6.59c3.32,.23,5.96,1.43,7.92,3.59,1.97,2.16,2.99,4.28,3.07,6.36-.31,4.86-3.26,8.74-8.85,11.63-5.59,2.89-12.59,4.88-21,5.96-.39,7.17-.97,16.51-1.74,28-1,13.73-1.7,27.46-2.08,41.19-.08,2.7-.23,5.67-.46,8.91-.54,5.09-.81,10.26-.81,15.5s.81,9.64,2.43,13.42c1.08,2.47,2.81,3.7,5.21,3.7,1.85,0,3.62-1.31,5.32-3.93,3.08-4.93,5.49-10.2,7.23-15.79,1.73-5.59,3.26-11.28,4.57-17.06,1.39-6.63,3.12-13.15,5.21-19.55,1.08-3.16,2.62-4.74,4.63-4.74,2.24,.16,3.36,2.08,3.36,5.78l-.23,2.55c-1.78,34.79-10.26,57.19-25.45,67.22-4.16,2.39-8.49,3.59-12.96,3.59Z"/><path d="M832.43,324.75c-6.25,0-11.92-3.39-17.01-10.18-2.62-3.39-4.55-7.17-5.78-11.34-.46-1.62-.69-3.2-.69-4.74,0-2.39,.54-4.74,1.62-7.06,2.55-4.24,6.21-7.25,10.99-9.02,3.16-1.54,6.4-2.31,9.72-2.31,6.71,0,12.3,3.55,16.78,10.64,3.01,4.16,4.59,8.37,4.74,12.61,0,4.94-1.99,9.64-5.96,14.11-3.97,4.47-8.77,6.9-14.4,7.29Z"/></g><g><path d="M597.5,326.6c-12.42-.31-22.25-3.55-29.5-9.72-12.11-10.18-18.16-25.1-18.16-44.77,0-3.08,.39-8.1,1.16-15.04,.77-6.94,3.43-15.17,7.98-24.7,4.55-9.52,10.51-17.28,17.87-23.25,7.36-5.98,15.87-9.04,25.51-9.2,9.18,0,16.43,2.39,21.75,7.17,5.63,5.48,8.45,12.84,8.45,22.1,0,4.01-.71,8.58-2.14,13.71-1.43,5.13-3.84,9.89-7.23,14.29-5.78,7.4-13.04,12.84-21.75,16.31-3.55,1.39-7.21,2.16-10.99,2.31-1.54,0-3.05-.08-4.51-.23-2.55-.31-3.82-.81-3.82-1.5v2.2c0,7.48,1.23,13.94,3.7,19.38,2.47,5.44,6.75,8.27,12.84,8.5,12.49-.23,23.99-7.87,34.48-22.91,7.71-11.03,13.96-22.83,18.74-35.4,.54-1.31,1.54-1.97,3.01-1.97,.54,0,1.08,.16,1.62,.46,1.16,.69,1.74,1.66,1.74,2.89,0,.39-.08,.77-.23,1.16-6.33,20.82-13.19,37.56-20.59,50.21-10.87,18.43-24.18,27.77-39.91,28Zm-8.79-67.33c3.39,0,6.79-1.14,10.18-3.41,3.39-2.27,6.36-5.55,8.91-9.83,2.55-4.28,4.24-8.19,5.09-11.74,1.39-4.32,2.08-7.94,2.08-10.87,0-1.39-.25-2.83-.75-4.34-.5-1.51-1.95-2.33-4.34-2.49-3.93,.16-7.64,2.22-11.11,6.19-3.47,3.97-6.52,9.14-9.14,15.5-2.62,6.36-4.59,13.13-5.9,20.3,1.77,.46,3.43,.69,4.97,.69Z"/><path d="M665.41,353.68c-1.39,0-2.74-.08-4.05-.23-6.25-.85-11.34-2.53-15.27-5.03-3.93-2.51-6.98-5.28-9.14-8.33-2.16-3.05-3.82-5.69-4.97-7.93-.15-.39-.31-.69-.46-.93-1.23-2.31-1.85-4.71-1.85-7.17l.12-1.27c.93-5.78,3.78-9.68,8.56-11.68,1.93-.77,3.86-1.16,5.78-1.16,3.01,0,6.02,.97,9.02,2.89,4.78,3.55,10.1,5.32,15.97,5.32,5.32,0,9.22-1.64,11.68-4.92,2.47-3.28,3.93-8.7,4.4-16.26,.15-1.7,.23-3.32,.23-4.86,0-9.1-3.12-16.97-9.37-23.6-3.16-3.32-6.56-6.44-10.18-9.37-3.63-2.93-6.98-6.05-10.07-9.37-6.09-6.55-9.14-14.27-9.14-23.14,0-9.79,3.36-17.51,10.07-23.14,5.63-4.63,12.07-7.87,19.32-9.72,1-.31,1.97-.46,2.89-.46,1.7,0,3.51,.54,5.44,1.62,1.93,1.08,3.39,2.97,4.4,5.67,.31,1.08,.46,2.12,.46,3.12,0,3.47-1.62,6.29-4.86,8.45-6.02,3.63-9.02,7.56-9.02,11.8,0,1.62,1.12,3.32,3.36,5.09,2.24,1.78,5.24,3.74,9.02,5.9,5.47,3.09,11.26,7.1,17.35,12.03,13.34,10.64,20.01,24.41,20.01,41.3,0,2.01-.08,4.13-.23,6.36-1.62,13.58-6.07,24.87-13.36,33.9-7.29,9.02-15.52,15.66-24.7,19.9-7.71,3.47-14.85,5.21-21.4,5.21Z"/><path d="M768.14,323.37c-1.62,0-4.4-.38-8.33-1.16-3.93-.77-8.06-3.62-12.38-8.56-3.86-4.55-6.63-9.68-8.33-15.39-3.24-10.87-4.86-25.84-4.86-44.89,0-13.42,1.12-33.2,3.36-59.35-8.33-1.31-15.21-3.37-20.65-6.19-5.44-2.82-8.16-6.34-8.16-10.59,0-1.31,.73-2.68,2.2-4.11,1.47-1.43,3.97-2.22,7.52-2.37,.54,0,2.78-.17,6.71-.52,3.93-.35,9.02-.71,15.27-1.1,1.54-10.49,4.55-22.94,9.02-37.37,1.08-4.01,2.81-7.67,5.21-10.99,1.31-1.62,2.89-2.89,4.74-3.82,1.39-.62,2.78-.93,4.16-.93l1.85,.12c3.39,.85,5.86,2.93,7.4,6.25,1.54,3.32,2.43,6.83,2.66,10.53,.31,4.71,.46,9.41,.46,14.11,0,5.09-.27,11.8-.81,20.13l10.99-.12h6.59c3.32,.23,5.96,1.43,7.92,3.59,1.97,2.16,2.99,4.28,3.07,6.36-.31,4.86-3.26,8.74-8.85,11.63-5.59,2.89-12.59,4.88-21,5.96-.39,7.17-.97,16.51-1.74,28-1,13.73-1.7,27.46-2.08,41.19-.08,2.7-.23,5.67-.46,8.91-.54,5.09-.81,10.26-.81,15.5s.81,9.64,2.43,13.42c1.08,2.47,2.81,3.7,5.21,3.7,1.85,0,3.62-1.31,5.32-3.93,3.08-4.93,5.49-10.2,7.23-15.79,1.73-5.59,3.26-11.28,4.57-17.06,1.39-6.63,3.12-13.15,5.21-19.55,1.08-3.16,2.62-4.74,4.63-4.74,2.24,.16,3.36,2.08,3.36,5.78l-.23,2.55c-1.78,34.79-10.26,57.19-25.45,67.22-4.16,2.39-8.49,3.59-12.96,3.59Z"/><path d="M832.43,324.75c-6.25,0-11.92-3.39-17.01-10.18-2.62-3.39-4.55-7.17-5.78-11.34-.46-1.62-.69-3.2-.69-4.74,0-2.39,.54-4.74,1.62-7.06,2.55-4.24,6.21-7.25,10.99-9.02,3.16-1.54,6.4-2.31,9.72-2.31,6.71,0,12.3,3.55,16.78,10.64,3.01,4.16,4.59,8.37,4.74,12.61,0,4.94-1.99,9.64-5.96,14.11-3.97,4.47-8.77,6.9-14.4,7.29Z"/></g></g><path d="M580.11,254.39c-12.58,23.69-43.44,29.14-71.19,29.59l-6.37,34.35c14.15,41.45,26.01,92.55,26.24,116.15,.1,9.96-1.03,23.96-11.96,30.51-3.99,2.39-8.16,3.94-12.35,4.64-7.93,1.33-15.89-.38-22.7-5.11-20.46-14.21-26.45-50.54-16.85-102.3l7.87-42.46c-6.44-18.27-12.72-32.75-17.18-38.09-9.72-6.41-7.54-15.63-6.98-17.48,3.63-12.02,14.37-11.31,29.23-10.32,2.02,.13,4.4,.29,7.06,.44l14.42-77.82c6.07-32.79,24.1-42.69,38.93-41.04,15.68,1.76,27.44,16.45,26.77,33.47-.32,7.99-7.05,14.23-15.05,13.91-8-.31-14.22-7.05-13.91-15.05,.07-1.7-.52-2.8-.97-3.31-1.48,1.11-5.12,5.62-7.28,17.3l-13.51,72.92c17.59-.83,34.99-4.16,40.17-13.91,3.75-7.07,12.53-9.75,19.59-6,7.07,3.75,9.75,12.53,6,19.6Zm-88.92,127.2c-5.3,40.3,3.03,56.28,7.13,59.13,.29,.21,.64,.45,1.31,.37,2.03-9.61-1.95-33.21-8.44-59.49Z"/></g><g><g><g><path class="i" d="M597.5,326.6c-12.42-.31-22.25-3.55-29.5-9.72-12.11-10.18-18.16-25.1-18.16-44.77,0-3.08,.39-8.1,1.16-15.04,.77-6.94,3.43-15.17,7.98-24.7,4.55-9.52,10.51-17.28,17.87-23.25,7.36-5.98,15.87-9.04,25.51-9.2,9.18,0,16.43,2.39,21.75,7.17,5.63,5.48,8.45,12.84,8.45,22.1,0,4.01-.71,8.58-2.14,13.71-1.43,5.13-3.84,9.89-7.23,14.29-5.78,7.4-13.04,12.84-21.75,16.31-3.55,1.39-7.21,2.16-10.99,2.31-1.54,0-3.05-.08-4.51-.23-2.55-.31-3.82-.81-3.82-1.5v2.2c0,7.48,1.23,13.94,3.7,19.38,2.47,5.44,6.75,8.27,12.84,8.5,12.49-.23,23.99-7.87,34.48-22.91,7.71-11.03,13.96-22.83,18.74-35.4,.54-1.31,1.54-1.97,3.01-1.97,.54,0,1.08,.16,1.62,.46,1.16,.69,1.74,1.66,1.74,2.89,0,.39-.08,.77-.23,1.16-6.33,20.82-13.19,37.56-20.59,50.21-10.87,18.43-24.18,27.77-39.91,28Zm-8.79-67.33c3.39,0,6.79-1.14,10.18-3.41,3.39-2.27,6.36-5.55,8.91-9.83,2.55-4.28,4.24-8.19,5.09-11.74,1.39-4.32,2.08-7.94,2.08-10.87,0-1.39-.25-2.83-.75-4.34-.5-1.51-1.95-2.33-4.34-2.49-3.93,.16-7.64,2.22-11.11,6.19-3.47,3.97-6.52,9.14-9.14,15.5-2.62,6.36-4.59,13.13-5.9,20.3,1.77,.46,3.43,.69,4.97,.69Z"/><path class="i" d="M665.41,353.68c-1.39,0-2.74-.08-4.05-.23-6.25-.85-11.34-2.53-15.27-5.03-3.93-2.51-6.98-5.28-9.14-8.33-2.16-3.05-3.82-5.69-4.97-7.93-.15-.39-.31-.69-.46-.93-1.23-2.31-1.85-4.71-1.85-7.17l.12-1.27c.93-5.78,3.78-9.68,8.56-11.68,1.93-.77,3.86-1.16,5.78-1.16,3.01,0,6.02,.97,9.02,2.89,4.78,3.55,10.1,5.32,15.97,5.32,5.32,0,9.22-1.64,11.68-4.92,2.47-3.28,3.93-8.7,4.4-16.26,.15-1.7,.23-3.32,.23-4.86,0-9.1-3.12-16.97-9.37-23.6-3.16-3.32-6.56-6.44-10.18-9.37-3.63-2.93-6.98-6.05-10.07-9.37-6.09-6.55-9.14-14.27-9.14-23.14,0-9.79,3.36-17.51,10.07-23.14,5.63-4.63,12.07-7.87,19.32-9.72,1-.31,1.97-.46,2.89-.46,1.7,0,3.51,.54,5.44,1.62,1.93,1.08,3.39,2.97,4.4,5.67,.31,1.08,.46,2.12,.46,3.12,0,3.47-1.62,6.29-4.86,8.45-6.02,3.63-9.02,7.56-9.02,11.8,0,1.62,1.12,3.32,3.36,5.09,2.24,1.78,5.24,3.74,9.02,5.9,5.47,3.09,11.26,7.1,17.35,12.03,13.34,10.64,20.01,24.41,20.01,41.3,0,2.01-.08,4.13-.23,6.36-1.62,13.58-6.07,24.87-13.36,33.9-7.29,9.02-15.52,15.66-24.7,19.9-7.71,3.47-14.85,5.21-21.4,5.21Z"/><path class="i" d="M768.14,323.37c-1.62,0-4.4-.38-8.33-1.16-3.93-.77-8.06-3.62-12.38-8.56-3.86-4.55-6.63-9.68-8.33-15.39-3.24-10.87-4.86-25.84-4.86-44.89,0-13.42,1.12-33.2,3.36-59.35-8.33-1.31-15.21-3.37-20.65-6.19-5.44-2.82-8.16-6.34-8.16-10.59,0-1.31,.73-2.68,2.2-4.11,1.47-1.43,3.97-2.22,7.52-2.37,.54,0,2.78-.17,6.71-.52,3.93-.35,9.02-.71,15.27-1.1,1.54-10.49,4.55-22.94,9.02-37.37,1.08-4.01,2.81-7.67,5.21-10.99,1.31-1.62,2.89-2.89,4.74-3.82,1.39-.62,2.78-.93,4.16-.93l1.85,.12c3.39,.85,5.86,2.93,7.4,6.25,1.54,3.32,2.43,6.83,2.66,10.53,.31,4.71,.46,9.41,.46,14.11,0,5.09-.27,11.8-.81,20.13l10.99-.12h6.59c3.32,.23,5.96,1.43,7.92,3.59,1.97,2.16,2.99,4.28,3.07,6.36-.31,4.86-3.26,8.74-8.85,11.63-5.59,2.89-12.59,4.88-21,5.96-.39,7.17-.97,16.51-1.74,28-1,13.73-1.7,27.46-2.08,41.19-.08,2.7-.23,5.67-.46,8.91-.54,5.09-.81,10.26-.81,15.5s.81,9.64,2.43,13.42c1.08,2.47,2.81,3.7,5.21,3.7,1.85,0,3.62-1.31,5.32-3.93,3.08-4.93,5.49-10.2,7.23-15.79,1.73-5.59,3.26-11.28,4.57-17.06,1.39-6.63,3.12-13.15,5.21-19.55,1.08-3.16,2.62-4.74,4.63-4.74,2.24,.16,3.36,2.08,3.36,5.78l-.23,2.55c-1.78,34.79-10.26,57.19-25.45,67.22-4.16,2.39-8.49,3.59-12.96,3.59Z"/><path class="i" d="M832.43,324.75c-6.25,0-11.92-3.39-17.01-10.18-2.62-3.39-4.55-7.17-5.78-11.34-.46-1.62-.69-3.2-.69-4.74,0-2.39,.54-4.74,1.62-7.06,2.55-4.24,6.21-7.25,10.99-9.02,3.16-1.54,6.4-2.31,9.72-2.31,6.71,0,12.3,3.55,16.78,10.64,3.01,4.16,4.59,8.37,4.74,12.61,0,4.94-1.99,9.64-5.96,14.11-3.97,4.47-8.77,6.9-14.4,7.29Z"/></g><g><path class="i" d="M597.5,326.6c-12.42-.31-22.25-3.55-29.5-9.72-12.11-10.18-18.16-25.1-18.16-44.77,0-3.08,.39-8.1,1.16-15.04,.77-6.94,3.43-15.17,7.98-24.7,4.55-9.52,10.51-17.28,17.87-23.25,7.36-5.98,15.87-9.04,25.51-9.2,9.18,0,16.43,2.39,21.75,7.17,5.63,5.48,8.45,12.84,8.45,22.1,0,4.01-.71,8.58-2.14,13.71-1.43,5.13-3.84,9.89-7.23,14.29-5.78,7.4-13.04,12.84-21.75,16.31-3.55,1.39-7.21,2.16-10.99,2.31-1.54,0-3.05-.08-4.51-.23-2.55-.31-3.82-.81-3.82-1.5v2.2c0,7.48,1.23,13.94,3.7,19.38,2.47,5.44,6.75,8.27,12.84,8.5,12.49-.23,23.99-7.87,34.48-22.91,7.71-11.03,13.96-22.83,18.74-35.4,.54-1.31,1.54-1.97,3.01-1.97,.54,0,1.08,.16,1.62,.46,1.16,.69,1.74,1.66,1.74,2.89,0,.39-.08,.77-.23,1.16-6.33,20.82-13.19,37.56-20.59,50.21-10.87,18.43-24.18,27.77-39.91,28Zm-8.79-67.33c3.39,0,6.79-1.14,10.18-3.41,3.39-2.27,6.36-5.55,8.91-9.83,2.55-4.28,4.24-8.19,5.09-11.74,1.39-4.32,2.08-7.94,2.08-10.87,0-1.39-.25-2.83-.75-4.34-.5-1.51-1.95-2.33-4.34-2.49-3.93,.16-7.64,2.22-11.11,6.19-3.47,3.97-6.52,9.14-9.14,15.5-2.62,6.36-4.59,13.13-5.9,20.3,1.77,.46,3.43,.69,4.97,.69Z"/><path class="i" d="M665.41,353.68c-1.39,0-2.74-.08-4.05-.23-6.25-.85-11.34-2.53-15.27-5.03-3.93-2.51-6.98-5.28-9.14-8.33-2.16-3.05-3.82-5.69-4.97-7.93-.15-.39-.31-.69-.46-.93-1.23-2.31-1.85-4.71-1.85-7.17l.12-1.27c.93-5.78,3.78-9.68,8.56-11.68,1.93-.77,3.86-1.16,5.78-1.16,3.01,0,6.02,.97,9.02,2.89,4.78,3.55,10.1,5.32,15.97,5.32,5.32,0,9.22-1.64,11.68-4.92,2.47-3.28,3.93-8.7,4.4-16.26,.15-1.7,.23-3.32,.23-4.86,0-9.1-3.12-16.97-9.37-23.6-3.16-3.32-6.56-6.44-10.18-9.37-3.63-2.93-6.98-6.05-10.07-9.37-6.09-6.55-9.14-14.27-9.14-23.14,0-9.79,3.36-17.51,10.07-23.14,5.63-4.63,12.07-7.87,19.32-9.72,1-.31,1.97-.46,2.89-.46,1.7,0,3.51,.54,5.44,1.62,1.93,1.08,3.39,2.97,4.4,5.67,.31,1.08,.46,2.12,.46,3.12,0,3.47-1.62,6.29-4.86,8.45-6.02,3.63-9.02,7.56-9.02,11.8,0,1.62,1.12,3.32,3.36,5.09,2.24,1.78,5.24,3.74,9.02,5.9,5.47,3.09,11.26,7.1,17.35,12.03,13.34,10.64,20.01,24.41,20.01,41.3,0,2.01-.08,4.13-.23,6.36-1.62,13.58-6.07,24.87-13.36,33.9-7.29,9.02-15.52,15.66-24.7,19.9-7.71,3.47-14.85,5.21-21.4,5.21Z"/><path class="i" d="M768.14,323.37c-1.62,0-4.4-.38-8.33-1.16-3.93-.77-8.06-3.62-12.38-8.56-3.86-4.55-6.63-9.68-8.33-15.39-3.24-10.87-4.86-25.84-4.86-44.89,0-13.42,1.12-33.2,3.36-59.35-8.33-1.31-15.21-3.37-20.65-6.19-5.44-2.82-8.16-6.34-8.16-10.59,0-1.31,.73-2.68,2.2-4.11,1.47-1.43,3.97-2.22,7.52-2.37,.54,0,2.78-.17,6.71-.52,3.93-.35,9.02-.71,15.27-1.1,1.54-10.49,4.55-22.94,9.02-37.37,1.08-4.01,2.81-7.67,5.21-10.99,1.31-1.62,2.89-2.89,4.74-3.82,1.39-.62,2.78-.93,4.16-.93l1.85,.12c3.39,.85,5.86,2.93,7.4,6.25,1.54,3.32,2.43,6.83,2.66,10.53,.31,4.71,.46,9.41,.46,14.11,0,5.09-.27,11.8-.81,20.13l10.99-.12h6.59c3.32,.23,5.96,1.43,7.92,3.59,1.97,2.16,2.99,4.28,3.07,6.36-.31,4.86-3.26,8.74-8.85,11.63-5.59,2.89-12.59,4.88-21,5.96-.39,7.17-.97,16.51-1.74,28-1,13.73-1.7,27.46-2.08,41.19-.08,2.7-.23,5.67-.46,8.91-.54,5.09-.81,10.26-.81,15.5s.81,9.64,2.43,13.42c1.08,2.47,2.81,3.7,5.21,3.7,1.85,0,3.62-1.31,5.32-3.93,3.08-4.93,5.49-10.2,7.23-15.79,1.73-5.59,3.26-11.28,4.57-17.06,1.39-6.63,3.12-13.15,5.21-19.55,1.08-3.16,2.62-4.74,4.63-4.74,2.24,.16,3.36,2.08,3.36,5.78l-.23,2.55c-1.78,34.79-10.26,57.19-25.45,67.22-4.16,2.39-8.49,3.59-12.96,3.59Z"/><path class="i" d="M832.43,324.75c-6.25,0-11.92-3.39-17.01-10.18-2.62-3.39-4.55-7.17-5.78-11.34-.46-1.62-.69-3.2-.69-4.74,0-2.39,.54-4.74,1.62-7.06,2.55-4.24,6.21-7.25,10.99-9.02,3.16-1.54,6.4-2.31,9.72-2.31,6.71,0,12.3,3.55,16.78,10.64,3.01,4.16,4.59,8.37,4.74,12.61,0,4.94-1.99,9.64-5.96,14.11-3.97,4.47-8.77,6.9-14.4,7.29Z"/></g><g><path class="i" d="M597.5,326.6c-12.42-.31-22.25-3.55-29.5-9.72-12.11-10.18-18.16-25.1-18.16-44.77,0-3.08,.39-8.1,1.16-15.04,.77-6.94,3.43-15.17,7.98-24.7,4.55-9.52,10.51-17.28,17.87-23.25,7.36-5.98,15.87-9.04,25.51-9.2,9.18,0,16.43,2.39,21.75,7.17,5.63,5.48,8.45,12.84,8.45,22.1,0,4.01-.71,8.58-2.14,13.71-1.43,5.13-3.84,9.89-7.23,14.29-5.78,7.4-13.04,12.84-21.75,16.31-3.55,1.39-7.21,2.16-10.99,2.31-1.54,0-3.05-.08-4.51-.23-2.55-.31-3.82-.81-3.82-1.5v2.2c0,7.48,1.23,13.94,3.7,19.38,2.47,5.44,6.75,8.27,12.84,8.5,12.49-.23,23.99-7.87,34.48-22.91,7.71-11.03,13.96-22.83,18.74-35.4,.54-1.31,1.54-1.97,3.01-1.97,.54,0,1.08,.16,1.62,.46,1.16,.69,1.74,1.66,1.74,2.89,0,.39-.08,.77-.23,1.16-6.33,20.82-13.19,37.56-20.59,50.21-10.87,18.43-24.18,27.77-39.91,28Zm-8.79-67.33c3.39,0,6.79-1.14,10.18-3.41,3.39-2.27,6.36-5.55,8.91-9.83,2.55-4.28,4.24-8.19,5.09-11.74,1.39-4.32,2.08-7.94,2.08-10.87,0-1.39-.25-2.83-.75-4.34-.5-1.51-1.95-2.33-4.34-2.49-3.93,.16-7.64,2.22-11.11,6.19-3.47,3.97-6.52,9.14-9.14,15.5-2.62,6.36-4.59,13.13-5.9,20.3,1.77,.46,3.43,.69,4.97,.69Z"/><path class="i" d="M665.41,353.68c-1.39,0-2.74-.08-4.05-.23-6.25-.85-11.34-2.53-15.27-5.03-3.93-2.51-6.98-5.28-9.14-8.33-2.16-3.05-3.82-5.69-4.97-7.93-.15-.39-.31-.69-.46-.93-1.23-2.31-1.85-4.71-1.85-7.17l.12-1.27c.93-5.78,3.78-9.68,8.56-11.68,1.93-.77,3.86-1.16,5.78-1.16,3.01,0,6.02,.97,9.02,2.89,4.78,3.55,10.1,5.32,15.97,5.32,5.32,0,9.22-1.64,11.68-4.92,2.47-3.28,3.93-8.7,4.4-16.26,.15-1.7,.23-3.32,.23-4.86,0-9.1-3.12-16.97-9.37-23.6-3.16-3.32-6.56-6.44-10.18-9.37-3.63-2.93-6.98-6.05-10.07-9.37-6.09-6.55-9.14-14.27-9.14-23.14,0-9.79,3.36-17.51,10.07-23.14,5.63-4.63,12.07-7.87,19.32-9.72,1-.31,1.97-.46,2.89-.46,1.7,0,3.51,.54,5.44,1.62,1.93,1.08,3.39,2.97,4.4,5.67,.31,1.08,.46,2.12,.46,3.12,0,3.47-1.62,6.29-4.86,8.45-6.02,3.63-9.02,7.56-9.02,11.8,0,1.62,1.12,3.32,3.36,5.09,2.24,1.78,5.24,3.74,9.02,5.9,5.47,3.09,11.26,7.1,17.35,12.03,13.34,10.64,20.01,24.41,20.01,41.3,0,2.01-.08,4.13-.23,6.36-1.62,13.58-6.07,24.87-13.36,33.9-7.29,9.02-15.52,15.66-24.7,19.9-7.71,3.47-14.85,5.21-21.4,5.21Z"/><path class="i" d="M768.14,323.37c-1.62,0-4.4-.38-8.33-1.16-3.93-.77-8.06-3.62-12.38-8.56-3.86-4.55-6.63-9.68-8.33-15.39-3.24-10.87-4.86-25.84-4.86-44.89,0-13.42,1.12-33.2,3.36-59.35-8.33-1.31-15.21-3.37-20.65-6.19-5.44-2.82-8.16-6.34-8.16-10.59,0-1.31,.73-2.68,2.2-4.11,1.47-1.43,3.97-2.22,7.52-2.37,.54,0,2.78-.17,6.71-.52,3.93-.35,9.02-.71,15.27-1.1,1.54-10.49,4.55-22.94,9.02-37.37,1.08-4.01,2.81-7.67,5.21-10.99,1.31-1.62,2.89-2.89,4.74-3.82,1.39-.62,2.78-.93,4.16-.93l1.85,.12c3.39,.85,5.86,2.93,7.4,6.25,1.54,3.32,2.43,6.83,2.66,10.53,.31,4.71,.46,9.41,.46,14.11,0,5.09-.27,11.8-.81,20.13l10.99-.12h6.59c3.32,.23,5.96,1.43,7.92,3.59,1.97,2.16,2.99,4.28,3.07,6.36-.31,4.86-3.26,8.74-8.85,11.63-5.59,2.89-12.59,4.88-21,5.96-.39,7.17-.97,16.51-1.74,28-1,13.73-1.7,27.46-2.08,41.19-.08,2.7-.23,5.67-.46,8.91-.54,5.09-.81,10.26-.81,15.5s.81,9.64,2.43,13.42c1.08,2.47,2.81,3.7,5.21,3.7,1.85,0,3.62-1.31,5.32-3.93,3.08-4.93,5.49-10.2,7.23-15.79,1.73-5.59,3.26-11.28,4.57-17.06,1.39-6.63,3.12-13.15,5.21-19.55,1.08-3.16,2.62-4.74,4.63-4.74,2.24,.16,3.36,2.08,3.36,5.78l-.23,2.55c-1.78,34.79-10.26,57.19-25.45,67.22-4.16,2.39-8.49,3.59-12.96,3.59Z"/><path class="i" d="M832.43,324.75c-6.25,0-11.92-3.39-17.01-10.18-2.62-3.39-4.55-7.17-5.78-11.34-.46-1.62-.69-3.2-.69-4.74,0-2.39,.54-4.74,1.62-7.06,2.55-4.24,6.21-7.25,10.99-9.02,3.16-1.54,6.4-2.31,9.72-2.31,6.71,0,12.3,3.55,16.78,10.64,3.01,4.16,4.59,8.37,4.74,12.61,0,4.94-1.99,9.64-5.96,14.11-3.97,4.47-8.77,6.9-14.4,7.29Z"/></g></g><g><path class="i" d="M580.11,254.39c-12.58,23.69-43.44,29.14-71.19,29.59l-6.37,34.35c14.15,41.45,26.01,92.55,26.24,116.15,.1,9.96-1.03,23.96-11.96,30.51-3.99,2.39-8.16,3.94-12.35,4.64-7.93,1.33-15.89-.38-22.7-5.11-20.46-14.21-26.45-50.54-16.85-102.3l7.87-42.46c-6.44-18.27-12.72-32.75-17.18-38.09-9.72-6.41-7.54-15.63-6.98-17.48,3.63-12.02,14.37-11.31,29.23-10.32,2.02,.13,4.4,.29,7.06,.44l14.42-77.82c6.07-32.79,24.1-42.69,38.93-41.04,15.68,1.76,27.44,16.45,26.77,33.47-.32,7.99-7.05,14.23-15.05,13.91-8-.31-14.22-7.05-13.91-15.05,.07-1.7-.52-2.8-.97-3.31-1.48,1.11-5.12,5.62-7.28,17.3l-13.51,72.92c17.59-.83,34.99-4.16,40.17-13.91,3.75-7.07,12.53-9.75,19.59-6,7.07,3.75,9.75,12.53,6,19.6Zm-88.92,127.2c-5.3,40.3,3.03,56.28,7.13,59.13,.29,.21,.64,.45,1.31,.37,2.03-9.61-1.95-33.21-8.44-59.49Z"/><path class="i" d="M580.11,254.39c-12.58,23.69-43.44,29.14-71.19,29.59l-6.37,34.35c14.15,41.45,26.01,92.55,26.24,116.15,.1,9.96-1.03,23.96-11.96,30.51-3.99,2.39-8.16,3.94-12.35,4.64-7.93,1.33-15.89-.38-22.7-5.11-20.46-14.21-26.45-50.54-16.85-102.3l7.87-42.46c-6.44-18.27-12.72-32.75-17.18-38.09-9.72-6.41-7.54-15.63-6.98-17.48,3.63-12.02,14.37-11.31,29.23-10.32,2.02,.13,4.4,.29,7.06,.44l14.42-77.82c6.07-32.79,24.1-42.69,38.93-41.04,15.68,1.76,27.44,16.45,26.77,33.47-.32,7.99-7.05,14.23-15.05,13.91-8-.31-14.22-7.05-13.91-15.05,.07-1.7-.52-2.8-.97-3.31-1.48,1.11-5.12,5.62-7.28,17.3l-13.51,72.92c17.59-.83,34.99-4.16,40.17-13.91,3.75-7.07,12.53-9.75,19.59-6,7.07,3.75,9.75,12.53,6,19.6Zm-88.92,127.2c-5.3,40.3,3.03,56.28,7.13,59.13,.29,.21,.64,.45,1.31,.37,2.03-9.61-1.95-33.21-8.44-59.49Z"/></g></g></g><g><path class="g" d="M763.56,326.84c-1.62,0-4.4-.38-8.33-1.16-3.93-.77-8.06-3.62-12.38-8.56-3.86-4.55-6.63-9.68-8.33-15.39-3.24-10.87-4.86-25.84-4.86-44.89,0-13.42,1.12-33.2,3.36-59.35-8.33-1.31-15.21-3.37-20.65-6.19-5.44-2.82-8.16-6.34-8.16-10.59,0-1.31,.73-2.68,2.2-4.11,1.47-1.43,3.97-2.22,7.52-2.37,.54,0,2.78-.17,6.71-.52,3.93-.35,9.02-.71,15.27-1.1,1.54-10.49,4.55-22.94,9.02-37.37,1.08-4.01,2.81-7.67,5.21-10.99,1.31-1.62,2.89-2.89,4.74-3.82,1.39-.62,2.78-.93,4.16-.93l1.85,.12c3.39,.85,5.86,2.93,7.4,6.25,1.54,3.32,2.43,6.83,2.66,10.53,.31,4.71,.46,9.41,.46,14.11,0,5.09-.27,11.8-.81,20.13l10.99-.12h6.59c3.32,.23,5.96,1.43,7.92,3.59,1.97,2.16,2.99,4.28,3.07,6.36-.31,4.86-3.26,8.74-8.85,11.63-5.59,2.89-12.59,4.88-21,5.96-.39,7.17-.97,16.51-1.74,28-1,13.73-1.7,27.46-2.08,41.19-.08,2.7-.23,5.67-.46,8.91-.54,5.09-.81,10.26-.81,15.5s.81,9.64,2.43,13.42c1.08,2.47,2.81,3.7,5.21,3.7,1.85,0,3.62-1.31,5.32-3.93,3.08-4.93,5.49-10.2,7.23-15.79,1.73-5.59,3.26-11.28,4.57-17.06,1.39-6.63,3.12-13.15,5.21-19.55,1.08-3.16,2.62-4.74,4.63-4.74,2.24,.16,3.36,2.08,3.36,5.78l-.23,2.55c-1.78,34.79-10.26,57.19-25.45,67.22-4.16,2.39-8.49,3.59-12.96,3.59Z"/><path class="g" d="M827.85,328.23c-6.25,0-11.92-3.39-17.01-10.18-2.62-3.39-4.55-7.17-5.78-11.34-.46-1.62-.69-3.2-.69-4.74,0-2.39,.54-4.74,1.62-7.06,2.55-4.24,6.21-7.25,10.99-9.02,3.16-1.54,6.4-2.31,9.72-2.31,6.71,0,12.3,3.55,16.78,10.64,3.01,4.16,4.59,8.37,4.74,12.61,0,4.94-1.99,9.64-5.96,14.11-3.97,4.47-8.77,6.9-14.4,7.29Z"/><path class="g" d="M700.51,250.48c-6.09-4.94-11.88-8.95-17.35-12.03-3.78-2.16-6.79-4.12-9.02-5.9-2.24-1.77-3.36-3.47-3.36-5.09,0-4.24,3.01-8.17,9.02-11.8,3.24-2.16,4.86-4.97,4.86-8.45,0-1-.16-2.04-.46-3.12-1-2.7-2.47-4.59-4.4-5.67-1.93-1.08-3.74-1.62-5.44-1.62-.93,0-1.89,.16-2.89,.46-7.25,1.85-13.69,5.09-19.32,9.72-6.71,5.63-10.07,13.34-10.07,23.14,0,6.9,1.87,13.09,5.56,18.59-.13,.19-.25,.38-.35,.61-4.78,12.57-11.03,24.37-18.74,35.4-10.49,15.04-21.98,22.68-34.48,22.91-6.09-.23-10.37-3.07-12.84-8.5-2.47-5.44-3.7-11.9-3.7-19.38v-2.2c0,.69,1.27,1.2,3.82,1.5,1.46,.16,2.97,.23,4.51,.23,3.78-.15,7.44-.93,10.99-2.31,8.71-3.47,15.97-8.91,21.75-16.31,3.39-4.4,5.8-9.16,7.23-14.29,1.43-5.13,2.14-9.7,2.14-13.71,0-9.25-2.82-16.62-8.44-22.1-5.32-4.78-12.57-7.17-21.75-7.17-9.64,.16-18.15,3.22-25.51,9.2-7.36,5.98-13.32,13.73-17.87,23.25-.92,1.93-1.74,3.79-2.51,5.61-.74,.84-1.41,1.77-1.96,2.8-5.18,9.75-22.58,13.07-40.17,13.91l13.51-72.92c2.17-11.68,5.8-16.19,7.28-17.3,.45,.5,1.03,1.61,.97,3.31-.31,8,5.91,14.74,13.91,15.05,8,.32,14.73-5.92,15.05-13.91,.67-17.01-11.09-31.71-26.77-33.47-14.84-1.65-32.86,8.25-38.93,41.04l-14.42,77.82c-2.66-.15-5.05-.31-7.06-.44-14.86-.99-25.6-1.7-29.23,10.32-.56,1.85-2.73,11.08,6.98,17.48,4.47,5.35,10.75,19.82,17.18,38.09l-7.87,42.46c-9.6,51.77-3.61,88.09,16.85,102.3,6.81,4.73,14.77,6.43,22.7,5.11,4.18-.7,8.36-2.25,12.35-4.64,10.93-6.55,12.06-20.55,11.96-30.51-.23-23.6-12.09-74.7-26.24-116.15l6.37-34.35c13.82-.22,28.41-1.69,41.13-6.02,1.1,16.8,7.08,29.79,17.96,38.94,7.25,6.17,17.08,9.41,29.5,9.72,15.73-.23,29.04-9.56,39.91-28,7.07-12.07,13.64-27.92,19.72-47.44,2.72,2.8,5.62,5.47,8.74,7.99,3.62,2.93,7.02,6.06,10.18,9.37,6.25,6.63,9.37,14.5,9.37,23.6,0,1.54-.08,3.16-.23,4.86-.46,7.56-1.93,12.98-4.4,16.26-2.47,3.28-6.36,4.92-11.69,4.92-5.86,0-11.18-1.77-15.97-5.32-3.01-1.93-6.02-2.89-9.02-2.89-1.93,0-3.86,.39-5.78,1.16-4.78,2.01-7.64,5.9-8.56,11.68l-.12,1.27c0,2.47,.62,4.86,1.85,7.17,.16,.23,.31,.54,.46,.93,1.16,2.24,2.82,4.88,4.97,7.93,2.16,3.05,5.21,5.82,9.14,8.33,3.93,2.5,9.02,4.18,15.27,5.03,1.31,.15,2.66,.23,4.05,.23,6.55,0,13.69-1.74,21.4-5.21,9.18-4.24,17.41-10.87,24.7-19.9,7.29-9.02,11.74-20.32,13.36-33.9,.15-2.24,.23-4.36,.23-6.36,0-16.89-6.67-30.66-20.02-41.3Zm-115.46-8.73c2.62-6.36,5.67-11.53,9.14-15.5,3.47-3.97,7.17-6.03,11.11-6.19,2.39,.16,3.84,.98,4.34,2.49,.5,1.5,.75,2.95,.75,4.34,0,2.93-.69,6.56-2.08,10.87-.85,3.55-2.54,7.46-5.09,11.74-2.54,4.28-5.52,7.56-8.91,9.84-3.39,2.27-6.79,3.41-10.18,3.41-1.54,0-3.2-.23-4.97-.69,1.31-7.17,3.28-13.94,5.9-20.3Zm-90.01,202.8c-.68,.08-1.03-.16-1.31-.37-4.1-2.84-12.42-18.82-7.13-59.13,6.5,26.29,10.47,49.89,8.44,59.49Z"/></g></g></g></g></svg>