<?xml version="1.0" encoding="UTF-8"?><svg xmlns="http://www.w3.org/2000/svg" viewBox="0 0 17.79 17.34"><defs><style>.d{fill:#fff;}.e{fill:#522e66;}</style></defs><g id="a"/><g id="b"><g id="c"><g><rect class="e" width="17.79" height="17.34"/><g><path class="d" d="M13.68,7.45c-.01,.87-.17,1.61-.56,2.29-.13,.23-.29,.44-.46,.65-1.14,1.34-2.28,2.68-3.42,4.02-.2,.24-.48,.25-.68,.03-1.17-1.38-2.34-2.75-3.51-4.13-.57-.67-.87-1.46-.92-2.33-.12-2.06,.73-3.62,2.51-4.66,.81-.47,1.71-.62,2.64-.55,1.02,.08,1.92,.44,2.7,1.11,.92,.79,1.47,1.8,1.65,3,.03,.22,.04,.44,.05,.58Zm-4.79,6.09s.03-.05,.04-.06c1.04-1.22,2.09-2.44,3.12-3.68,.18-.22,.35-.46,.46-.71,.43-.95,.45-1.93,.09-2.9-.77-2.11-2.96-3.08-4.98-2.41-1.61,.53-2.68,2.03-2.7,3.73,0,.81,.18,1.57,.71,2.21,.62,.75,1.25,1.48,1.88,2.22,.45,.53,.9,1.06,1.37,1.61Z"/><path class="d" d="M8.89,9.84c-1.27,0-2.32-1.03-2.32-2.31,0-1.27,1.02-2.31,2.31-2.33,1.26-.02,2.32,1.03,2.33,2.31,.01,1.28-1.03,2.33-2.31,2.33Zm1.48-2.32c0-.82-.66-1.49-1.48-1.49-.82,0-1.49,.66-1.5,1.49,0,.82,.66,1.49,1.48,1.49,.82,0,1.49-.66,1.5-1.49Z"/></g></g></g></g></svg>