<svg xmlns="http://www.w3.org/2000/svg" viewBox="0 0 120.18 45.21"><defs><style>.cls-1{fill:#f3773f;}</style></defs><g id="Capa_2" data-name="Capa 2"><g id="Capa_1-2" data-name="Capa 1"><path class="cls-1" d="M118.93,17.93h0A78.88,78.88,0,0,0,101.19,1.07,6,6,0,1,0,94.35,11q1.82,1.26,3.65,2.73A57.89,57.89,0,0,1,54.66,33.18,57.9,57.9,0,0,1,10.59,12.85a5.91,5.91,0,0,0-4.1-2.09,6,6,0,0,0-5.05,9.9A69.91,69.91,0,0,0,54.66,45.21,69.92,69.92,0,0,0,106.71,22c1,1.09,1.86,2.19,2.69,3.27a6,6,0,1,0,9.53-7.34Z"/></g></g></svg>