<svg xmlns="http://www.w3.org/2000/svg" viewBox="0 0 126.61 92.99"><defs><style>.cls-1{fill:#00acb9;}</style></defs><g id="Capa_2" data-name="Capa 2"><g id="Capa_1-2" data-name="Capa 1"><path class="cls-1" d="M40,27.08A22.29,22.29,0,0,1,19.85,39.77a20.53,20.53,0,0,1-18.23-12A19.9,19.9,0,0,1,19.85,0,19.89,19.89,0,0,1,39.69,19.85a2.26,2.26,0,0,1-.08,1.07L13.92,25.54a6.89,6.89,0,0,0,5.93,3.23,13.7,13.7,0,0,0,10.07-4.85ZM12.23,16.54l13.61-2.39a8.06,8.06,0,0,0-7.61-3.38,8.25,8.25,0,0,0-5.69,4.84C12.54,15.46,12.38,15.77,12.23,16.54Z"/><path class="cls-1" d="M126.61,27.08a22.29,22.29,0,0,1-20.15,12.69,20.54,20.54,0,0,1-18.23-12A19.9,19.9,0,0,1,106.46,0,19.89,19.89,0,0,1,126.3,19.85a2.41,2.41,0,0,1-.07,1.07l-25.69,4.62a6.87,6.87,0,0,0,5.92,3.23,13.71,13.71,0,0,0,10.08-4.85ZM98.84,16.54l13.62-2.39a8.07,8.07,0,0,0-7.62-3.38,8.27,8.27,0,0,0-5.69,4.84C99.15,15.46,99,15.77,98.84,16.54Z"/><path class="cls-1" d="M121.66,65.71h0a78.88,78.88,0,0,0-17.74-16.86,6,6,0,0,0-9.34,6,5.93,5.93,0,0,0,2.5,3.86c1.2.84,2.43,1.75,3.65,2.73a57.93,57.93,0,0,1-87.41-.84A6,6,0,0,0,4.84,60a6,6,0,0,0-.67,8.48,70,70,0,0,0,105.26,1.34c1,1.1,1.86,2.19,2.69,3.27a6,6,0,0,0,9.54-7.34Z"/></g></g></svg>